<svg width="66" height="60" viewBox="0 0 66 60" fill="none" xmlns="http://www.w3.org/2000/svg">
<path d="M21.0632 0.918573C20.2898 1.27951 19.6711 1.98849 19.4132 2.8006C19.2199 3.41935 18.498 7.93107 18.5754 8.02131C18.6527 8.08576 65.1105 17.9084 65.1492 17.8569C65.2136 17.7795 66 12.533 66 12.1979C66 11.2053 65.1492 9.92912 64.1824 9.47795C63.5894 9.19435 23.0226 0.609198 22.2879 0.609198C21.9656 0.609198 21.4371 0.738104 21.0632 0.918573Z" fill="#222222"/>
<path d="M16.5902 15.9104C16.4742 16.4003 16.023 18.5014 15.5847 20.6026L14.7855 24.4311L8.58513 26.1456C5.16911 27.0866 2.20427 27.9245 1.97224 28.0276C1.37927 28.2725 0.670286 28.93 0.34802 29.5358C-0.244948 30.6702 -0.257839 30.6315 3.64802 44.6179C6.31638 54.1956 7.29607 57.5085 7.56677 57.9596C8.05661 58.746 8.9074 59.2616 9.88708 59.3518C10.5832 59.4163 12.1172 59.0038 30.9375 53.7831C42.1008 50.6893 51.4465 48.0725 51.6914 47.9694C52.2715 47.7245 52.9289 47.08 53.2511 46.4612C53.741 45.5202 53.7023 44.9788 52.9804 42.3878C52.6195 41.0858 52.3617 39.9901 52.3875 39.9514C52.4261 39.9257 53.4574 40.1061 54.682 40.3768C57.389 40.9569 58.1754 40.9569 59.1164 40.3639C60.2765 39.6421 60.3023 39.6034 61.9394 31.869C62.7387 28.0405 63.3961 24.9081 63.3832 24.8952C63.3703 24.8823 59.7351 24.1089 55.3008 23.1807C50.8664 22.2397 47.2312 21.4534 47.2054 21.4405C47.1926 21.4147 46.9992 20.8218 46.8058 20.1257C46.5996 19.4167 46.3804 18.6948 46.3031 18.5143C46.0969 17.9987 45.5297 17.3929 44.8722 17.0061C43.8797 16.4261 43.2222 16.5034 38.8523 17.728C36.8027 18.3081 34.9851 18.785 34.8304 18.785C34.6758 18.785 30.5765 17.9472 25.7168 16.9159C20.857 15.8847 16.8609 15.0468 16.8351 15.0468C16.7965 15.0468 16.6933 15.4335 16.5902 15.9104ZM43.8926 19.5585C43.9312 19.6229 44.2793 20.7831 44.6531 22.1366L45.3363 24.5858L44.8722 24.7147C44.6144 24.7792 35.3332 27.3573 24.2344 30.4382C13.1484 33.519 4.04763 36.0198 4.02185 36.0069C4.00896 35.9811 3.66091 34.821 3.27419 33.4159C2.5781 30.9409 2.56521 30.8636 2.79724 30.6315C3.1324 30.2964 43.2996 19.1589 43.5961 19.3136C43.7121 19.378 43.8539 19.4811 43.8926 19.5585ZM56.1258 26.5968C58.6137 27.1253 58.9488 27.2671 59.2453 27.8343C59.4515 28.221 59.4386 28.3499 58.8972 30.8893C58.3043 33.6866 58.1109 34.1378 57.4277 34.3054C57.1183 34.3827 52.6453 33.519 51.9105 33.2354C51.4594 33.055 51.1758 32.6038 51.1758 32.0366C51.1758 31.4952 52.0008 27.4218 52.2199 26.8675C52.5808 25.9909 53.0965 25.9522 56.1258 26.5968ZM47.0636 30.7991C47.141 31.0956 48.0433 34.344 49.0617 38.0307C50.8406 44.4245 51.0597 45.3655 50.8148 45.5202C50.7117 45.5846 11.3437 56.5288 10.4414 56.7479C10.2609 56.7866 10.0289 56.7479 9.89997 56.6577C9.74529 56.5417 9.02341 54.1311 7.61833 49.078C6.48396 45.0046 5.56872 41.6659 5.58161 41.653C5.64607 41.5886 46.5094 30.2706 46.6898 30.2706C46.8445 30.2577 46.9605 30.4253 47.0636 30.7991Z" fill="#222222"/>
<path d="M13.0195 45.5976C11.782 45.9456 10.609 46.3066 10.4027 46.3839C9.92578 46.5902 9.66797 46.9769 9.66797 47.5312C9.66797 47.9823 10.8281 52.3265 11.0602 52.7777C11.318 53.2546 11.7434 53.5253 12.2203 53.4995C12.6715 53.4866 16.5258 52.4683 17.3121 52.146C17.7891 51.9527 18.1758 51.4499 18.1758 50.9859C18.1758 50.612 17.0027 46.2421 16.7449 45.6878C16.5773 45.314 15.9844 44.953 15.5719 44.9659C15.4172 44.9659 14.257 45.2495 13.0195 45.5976Z" fill="#222222"/>
</svg>
