<svg width="66" height="66" viewBox="0 0 66 66" fill="none" xmlns="http://www.w3.org/2000/svg">
<g id="1 998">
<g id="Group">
<path id="Vector" d="M10.9184 3.63532C10.8023 3.72556 10.016 4.75681 9.16523 5.92985C7.92773 7.61853 7.60547 8.14704 7.60547 8.4822C7.60547 8.95915 11.5887 17.7892 12.0141 18.2662C12.3621 18.64 12.9164 18.756 13.3289 18.5369C13.6641 18.3564 28.5785 5.71071 28.875 5.34978C28.9781 5.22087 29.0684 4.8986 29.0684 4.61501C29.0684 4.2154 28.9781 4.03493 28.7074 3.79001L28.3465 3.48063H19.7355C13.0582 3.48063 11.0859 3.51931 10.9184 3.63532Z" fill="#222222"/>
<path id="Vector_2" d="M37.3184 3.80276C36.893 4.21526 36.8801 5.01448 37.2926 5.45276C37.9629 6.20042 52.5293 18.4723 52.8644 18.5883C53.4574 18.7946 53.9601 18.511 54.334 17.802C55.5199 15.443 58.4203 8.89456 58.4203 8.54651C58.4203 8.31448 58.2914 7.94065 58.1238 7.70862C56.9766 6.0844 55.3523 3.89299 55.1332 3.69964C54.9012 3.49339 54.2953 3.48049 46.2516 3.48049H37.6277L37.3184 3.80276Z" fill="#222222"/>
<path id="Vector_3" d="M32.3168 5.59453C31.9301 5.86523 18.2661 17.4281 17.6215 18.0469C17.4926 18.1629 17.3508 18.5109 17.3122 18.7945C17.2477 19.2586 17.2864 19.3746 17.6344 19.7227L18.0211 20.1094H32.9743H47.9274L48.327 19.7742C48.8942 19.2973 48.8942 18.6012 48.3141 17.9953C47.7598 17.4152 33.8766 5.60742 33.5415 5.42695C33.1418 5.20781 32.8196 5.25937 32.3168 5.59453Z" fill="#222222"/>
<path id="Vector_4" d="M4.93714 11.9238C4.66644 12.1043 0.451204 17.8148 0.141829 18.4207C-0.0902021 18.8461 0.0773761 19.5293 0.476985 19.8516C0.799251 20.0965 0.97972 20.1094 4.76956 20.1094C8.55941 20.1094 8.73988 20.0965 9.06214 19.8516C9.77113 19.2973 9.70667 19.0266 8.05667 15.4559C7.20589 13.5738 6.44534 12.0914 6.27777 11.9625C5.92972 11.6789 5.29808 11.666 4.93714 11.9238Z" fill="#222222"/>
<path id="Vector_5" d="M59.9801 11.8594C59.8254 11.9238 59.6063 12.1172 59.4903 12.2848C59.2324 12.6844 56.7188 18.1371 56.577 18.6141C56.4352 19.091 56.7317 19.7613 57.1828 19.9676C57.402 20.0578 58.7426 20.1094 61.3465 20.1094C65.0203 20.1094 65.2008 20.0965 65.5231 19.8516C65.9227 19.5293 66.0903 18.8461 65.8582 18.4207C65.6391 17.9824 61.411 12.1945 61.1918 12.0141C60.934 11.7949 60.3153 11.7176 59.9801 11.8594Z" fill="#222222"/>
<path id="Vector_6" d="M0.82509 22.5586C0.670402 22.623 0.451261 22.8035 0.335246 22.9711C-0.19327 23.7187 -0.670223 23.0484 11.5501 39.0199C17.8278 47.2312 23.1645 54.1406 23.4095 54.3597C23.9767 54.914 24.5052 54.9269 25.0208 54.4113C25.2786 54.1535 25.3946 53.9086 25.3946 53.625C25.3946 53.3672 22.997 48.0047 18.6142 38.4398C14.8759 30.3058 11.7306 23.448 11.6017 23.1902C11.4727 22.9453 11.2149 22.6746 11.0216 22.5844C10.622 22.4039 1.26337 22.3781 0.82509 22.5586Z" fill="#222222"/>
<path id="Vector_7" d="M14.966 22.7649C14.6437 23.0227 14.5664 23.2032 14.5664 23.5899C14.5664 23.9638 16.6031 28.527 23.2547 43.0032C28.0371 53.4188 32.0719 62.0684 32.2266 62.2231C32.5746 62.5841 33.3609 62.6227 33.7477 62.2876C34.0312 62.0684 51.5625 24.0282 51.5625 23.6673C51.5625 23.2934 51.2531 22.7907 50.9051 22.6102C50.5957 22.4556 47.9273 22.4298 32.9484 22.4298H15.3656L14.966 22.7649Z" fill="#222222"/>
<path id="Vector_8" d="M54.811 22.7777C54.5274 23.0484 52.5938 27.1218 47.5664 38.0789C43.8024 46.3031 40.6828 53.2125 40.6442 53.4445C40.5797 53.7925 40.6442 53.9343 40.9664 54.2695C41.4949 54.798 42.2168 54.8109 42.6938 54.2953C42.8742 54.1019 48.1594 47.2312 54.45 39.0199C66.9153 22.7261 66.2578 23.6672 65.5617 22.855L65.2524 22.4941L60.2121 22.4554L55.1848 22.4168L54.811 22.7777Z" fill="#222222"/>
</g>
</g>
</svg>
