<svg width="66" height="66" viewBox="0 0 66 66" fill="none" xmlns="http://www.w3.org/2000/svg">
<g id="1 997" clip-path="url(#clip0_1070_29354)">
<g id="Group">
<path id="Vector" d="M32.6004 1.03125C32.4199 1.08281 26.2969 4.35703 19.0008 8.31445C10.1063 13.1355 5.59453 15.6363 5.32383 15.9328C4.97578 16.2937 4.89844 16.4742 4.89844 16.9383C4.89844 17.6473 5.34961 18.2402 6.03281 18.4336C6.35508 18.5109 15.327 18.5625 33 18.5625C50.673 18.5625 59.6449 18.5109 59.9672 18.4336C60.6504 18.2402 61.1016 17.6473 61.1016 16.9383C61.1016 16.4742 61.0242 16.2937 60.6891 15.9328C60.4055 15.6363 55.8938 13.1355 46.9219 8.27578C39.5871 4.30547 33.4383 1.03125 33.2578 0.992577C33.0773 0.953905 32.7809 0.979687 32.6004 1.03125Z" fill="#222222"/>
<path id="Vector_2" d="M11.1375 22.4297C10.4414 22.7133 10.2351 23.6027 10.7379 24.1699C10.9699 24.4535 11.1762 24.518 11.8336 24.5824L12.6328 24.6598V36.8801V49.1133H11.8723C11.2277 49.1133 11.073 49.1648 10.7766 49.4484C10.3254 49.9125 10.3254 50.5055 10.7766 50.9695L11.1246 51.3047H15.1465H19.1683L19.5164 50.9695C19.9676 50.5055 19.9676 49.9125 19.5164 49.4484C19.2199 49.1648 19.0652 49.1133 18.4207 49.1133H17.6601V36.8801V24.6598L18.4594 24.5824C19.1168 24.518 19.323 24.4535 19.5551 24.1699C19.9418 23.7316 19.9289 23.1773 19.5422 22.7262L19.2328 22.3652L15.3141 22.3395C13.1742 22.3266 11.2793 22.3652 11.1375 22.4297Z" fill="#222222"/>
<path id="Vector_3" d="M46.8445 22.4297C46.1484 22.7133 45.9422 23.6027 46.4449 24.1699C46.6769 24.4535 46.8832 24.518 47.5406 24.5824L48.3398 24.6598V36.8801V49.1133H47.5793C46.9348 49.1133 46.7801 49.1648 46.4836 49.4484C46.0324 49.9125 46.0324 50.5055 46.4836 50.9695L46.8316 51.3047H50.8535H54.8754L55.2234 50.9695C55.6746 50.5055 55.6746 49.9125 55.2234 49.4484C54.9269 49.1648 54.7723 49.1133 54.1277 49.1133H53.3672V36.8801V24.6598L54.1664 24.5824C54.8238 24.518 55.0301 24.4535 55.2621 24.1699C55.6488 23.7316 55.6359 23.1773 55.2492 22.7262L54.9398 22.3652L51.0211 22.3395C48.8812 22.3266 46.9863 22.3652 46.8445 22.4297Z" fill="#222222"/>
<path id="Vector_4" d="M31.4531 27.2637C31.4531 28.1918 31.4402 28.2305 31.1566 28.2305C30.5894 28.2305 28.8234 28.7461 28.0113 29.1329C27.0961 29.584 26.0777 30.5637 25.6652 31.3887C24.7629 33.1934 25.1109 35.5782 26.4644 36.893C27.3797 37.7954 28.3851 38.2079 30.7183 38.6719L31.4531 38.8137V40.8118V42.7969H30.7828C29.6226 42.7969 26.9027 42.2684 25.7555 41.8301C25.5363 41.7399 25.5234 41.8817 25.5234 43.5317V45.3235L26.1422 45.5426C26.9414 45.8262 28.3336 46.1098 29.4551 46.2C29.9578 46.2516 30.6023 46.3161 30.8988 46.3547L31.4402 46.4192L31.4789 47.2829L31.5176 48.1465L32.9742 48.1852L34.418 48.2239V47.2571V46.2903L34.9078 46.2129C38.3883 45.6715 40.2574 44.1891 40.6183 41.6883C40.8504 40.1286 40.5152 38.9297 39.5871 37.8856C38.6719 36.8543 37.6793 36.3774 35.4234 35.9004L34.418 35.6813V33.6575V31.6336L35.5523 31.7497C36.1711 31.8141 37.3312 32.0333 38.1305 32.2395C38.9297 32.4458 39.6129 32.6133 39.6515 32.6133C39.6773 32.6133 39.7031 31.8012 39.7031 30.8086C39.7031 29.8161 39.6773 29.004 39.6644 29.004C39.6387 29.004 39.1617 28.8879 38.5945 28.7333C37.6922 28.5012 35.243 28.1145 34.65 28.1016C34.4566 28.1016 34.418 27.9727 34.418 27.1993V26.2969H32.9355H31.4531V27.2637ZM31.4531 33.4641V35.2172L31.0406 35.127C29.5453 34.8047 28.8492 33.8379 29.3262 32.8196C29.5969 32.2395 30.3058 31.8657 31.3629 31.7239C31.4144 31.711 31.4531 32.4973 31.4531 33.4641ZM35.9004 39.7418C36.2742 39.9481 36.4547 40.1672 36.5707 40.5153C36.9058 41.5208 36.2355 42.3586 34.9078 42.6036L34.418 42.6938V40.9922V39.2907L34.9078 39.3809C35.1656 39.4196 35.6168 39.5872 35.9004 39.7418Z" fill="#222222"/>
<path id="Vector_5" d="M5.41406 56.7188V58.7812H33H60.5859V56.7188V54.6562H33H5.41406V56.7188Z" fill="#222222"/>
<path id="Vector_6" d="M0 63.0352V65.0977H33H66V63.0352V60.9727H33H0V63.0352Z" fill="#222222"/>
</g>
</g>
<defs>
<clipPath id="clip0_1070_29354">
<rect width="66" height="66" fill="white"/>
</clipPath>
</defs>
</svg>
