<svg width="66" height="66" viewBox="0 0 66 66" fill="none" xmlns="http://www.w3.org/2000/svg">
<g id="1 996" clip-path="url(#clip0_1070_29368)">
<g id="Group">
<path id="Vector" d="M21.0632 3.91857C20.2898 4.27951 19.6711 4.98849 19.4132 5.8006C19.2199 6.41935 18.498 10.9311 18.5754 11.0213C18.6527 11.0858 65.1105 20.9084 65.1492 20.8569C65.2136 20.7795 66 15.533 66 15.1979C66 14.2053 65.1492 12.9291 64.1824 12.4779C63.5894 12.1944 23.0226 3.6092 22.2879 3.6092C21.9656 3.6092 21.4371 3.7381 21.0632 3.91857Z" fill="#222222"/>
<path id="Vector_2" d="M16.5902 18.9104C16.4742 19.4003 16.023 21.5014 15.5847 23.6026L14.7855 27.4311L8.58513 29.1456C5.16911 30.0866 2.20427 30.9245 1.97224 31.0276C1.37927 31.2725 0.670286 31.93 0.34802 32.5358C-0.244948 33.6702 -0.257839 33.6315 3.64802 47.6179C6.31638 57.1956 7.29607 60.5085 7.56677 60.9596C8.05661 61.746 8.9074 62.2616 9.88708 62.3518C10.5832 62.4163 12.1172 62.0038 30.9375 56.7831C42.1008 53.6893 51.4465 51.0725 51.6914 50.9694C52.2715 50.7245 52.9289 50.08 53.2511 49.4612C53.741 48.5202 53.7023 47.9788 52.9804 45.3878C52.6195 44.0858 52.3617 42.9901 52.3875 42.9514C52.4261 42.9257 53.4574 43.1061 54.682 43.3768C57.389 43.9569 58.1754 43.9569 59.1164 43.3639C60.2765 42.6421 60.3023 42.6034 61.9394 34.869C62.7387 31.0405 63.3961 27.9081 63.3832 27.8952C63.3703 27.8823 59.7351 27.1089 55.3008 26.1807C50.8664 25.2397 47.2312 24.4534 47.2054 24.4405C47.1926 24.4147 46.9992 23.8218 46.8058 23.1257C46.5996 22.4167 46.3804 21.6948 46.3031 21.5143C46.0969 20.9987 45.5297 20.3929 44.8722 20.0061C43.8797 19.4261 43.2222 19.5034 38.8523 20.728C36.8027 21.3081 34.9851 21.785 34.8304 21.785C34.6758 21.785 30.5765 20.9472 25.7168 19.9159C20.857 18.8847 16.8609 18.0468 16.8351 18.0468C16.7965 18.0468 16.6933 18.4335 16.5902 18.9104ZM43.8926 22.5585C43.9312 22.6229 44.2793 23.7831 44.6531 25.1366L45.3363 27.5858L44.8722 27.7147C44.6144 27.7792 35.3332 30.3573 24.2344 33.4382C13.1484 36.519 4.04763 39.0198 4.02185 39.0069C4.00896 38.9811 3.66091 37.821 3.27419 36.4159C2.5781 33.9409 2.56521 33.8636 2.79724 33.6315C3.1324 33.2964 43.2996 22.1589 43.5961 22.3136C43.7121 22.378 43.8539 22.4811 43.8926 22.5585ZM56.1258 29.5968C58.6137 30.1253 58.9488 30.2671 59.2453 30.8343C59.4515 31.221 59.4386 31.3499 58.8972 33.8893C58.3043 36.6866 58.1109 37.1378 57.4277 37.3054C57.1183 37.3827 52.6453 36.519 51.9105 36.2354C51.4594 36.055 51.1758 35.6038 51.1758 35.0366C51.1758 34.4952 52.0008 30.4218 52.2199 29.8675C52.5808 28.9909 53.0965 28.9522 56.1258 29.5968ZM47.0636 33.7991C47.141 34.0956 48.0433 37.344 49.0617 41.0307C50.8406 47.4245 51.0597 48.3655 50.8148 48.5202C50.7117 48.5846 11.3437 59.5288 10.4414 59.7479C10.2609 59.7866 10.0289 59.7479 9.89997 59.6577C9.74529 59.5417 9.02341 57.1311 7.61833 52.078C6.48396 48.0046 5.56872 44.6659 5.58161 44.653C5.64607 44.5886 46.5094 33.2706 46.6898 33.2706C46.8445 33.2577 46.9605 33.4253 47.0636 33.7991Z" fill="#222222"/>
<path id="Vector_3" d="M13.0195 48.5976C11.782 48.9456 10.609 49.3066 10.4027 49.3839C9.92578 49.5902 9.66797 49.9769 9.66797 50.5312C9.66797 50.9823 10.8281 55.3265 11.0602 55.7777C11.318 56.2546 11.7434 56.5253 12.2203 56.4995C12.6715 56.4866 16.5258 55.4683 17.3121 55.146C17.7891 54.9527 18.1758 54.4499 18.1758 53.9859C18.1758 53.612 17.0027 49.2421 16.7449 48.6878C16.5773 48.314 15.9844 47.953 15.5719 47.9659C15.4172 47.9659 14.257 48.2495 13.0195 48.5976Z" fill="#222222"/>
</g>
</g>
<defs>
<clipPath id="clip0_1070_29368">
<rect width="66" height="66" fill="white"/>
</clipPath>
</defs>
</svg>
