<svg width="60" height="60" viewBox="0 0 60 60" fill="none" xmlns="http://www.w3.org/2000/svg">
<g clip-path="url(#clip0_1070_29395)">
<path d="M14.2893 8.20312V15.5859H7.14466H0V37.3828V59.1797H23.3052H46.6104V57.293V55.4062L45.9073 55.5C44.1041 55.7344 41.2235 55.5234 39.375 55.0312C37.5038 54.5273 35.1903 53.4023 33.5345 52.1836C32.3097 51.2812 29.2797 49.1836 28.4065 47.8945C24.7094 42.4688 24.1197 35.5195 26.8188 29.4961C28.7127 25.2891 33.4325 21.7617 37.6852 20.1445C39.8626 19.3125 42.505 18.8906 44.7959 19.0195C45.5103 19.0664 46.2135 19.125 46.3609 19.1719L46.6104 19.2422V10.0312V0.820312H30.4498H14.2893V8.20312Z" fill="#222222"/>
<path d="M6.60035 7.61719L1.45166 13.0078H6.62303H11.7944V7.61719C11.7944 4.65234 11.7831 2.22656 11.7717 2.22656C11.749 2.22656 9.42419 4.65234 6.60035 7.61719Z" fill="#222222"/>
<rect width="39" height="39" rx="19.5" transform="matrix(1 0 0 -1 24 57)" fill="white"/>
<rect width="33" height="33" rx="16.5" transform="matrix(1 0 0 -1 27 54)" fill="#222222"/>
<path d="M41.3896 37.1928V29H46.7494C48.7228 29 50.3226 30.834 50.3226 33.0964C50.3226 35.3588 48.7228 37.1928 46.7494 37.1928H41.3896ZM41.3896 37.1928V41.9036M41.3896 37.1928H38.7097M41.3896 41.9036V46M41.3896 41.9036H38.7097M41.3896 41.9036H45.8561" stroke="white" stroke-width="3" stroke-linecap="square"/>
</g>
<defs>
<clipPath id="clip0_1070_29395">
<rect width="60" height="60" fill="white"/>
</clipPath>
</defs>
</svg>
