<svg width="30" height="30" viewBox="0 0 30 30" fill="none" xmlns="http://www.w3.org/2000/svg">
<g id="Fill">
<path id="Subtract" fill-rule="evenodd" clip-rule="evenodd" d="M14.9992 0.333374C6.89929 0.333374 0.333008 6.89966 0.333008 14.9996C0.333008 23.0995 6.89929 29.6658 14.9992 29.6658C23.0991 29.6658 29.6654 23.0995 29.6654 14.9996C29.6654 6.89966 23.0991 0.333374 14.9992 0.333374ZM16.4992 9.00004V7.50004H13.4992V9.00004V14.9998V16.4998H16.4992V14.9998V9.00004ZM16.4992 20.9993C16.4992 20.1709 15.8276 19.4993 14.9992 19.4993C14.1708 19.4993 13.4992 20.1709 13.4992 20.9993V21.666C13.4992 22.4944 14.1708 23.166 14.9992 23.166C15.8276 23.166 16.4992 22.4944 16.4992 21.666V20.9993Z" fill="#BF3535"/>
</g>
</svg>
