<svg width="18" height="18" viewBox="0 0 18 18" fill="black" xmlns="http://www.w3.org/2000/svg">
<g id="Close Circle" clip-path="url(#clip0_1107_38351)">
<g id="Fill">
<path id="Subtract" fill-rule="evenodd" clip-rule="evenodd" d="M9 0.75C4.44365 0.75 0.75 4.44365 0.75 9C0.75 13.5563 4.44365 17.25 9 17.25C13.5563 17.25 17.25 13.5563 17.25 9C17.25 4.44365 13.5563 0.75 9 0.75ZM7.28033 6.21967C6.98744 5.92678 6.51256 5.92678 6.21967 6.21967C5.92678 6.51256 5.92678 6.98744 6.21967 7.28033L7.93934 9L6.21967 10.7197C5.92678 11.0126 5.92678 11.4874 6.21967 11.7803C6.51256 12.0732 6.98744 12.0732 7.28033 11.7803L9 10.0607L10.7197 11.7803C11.0126 12.0732 11.4874 12.0732 11.7803 11.7803C12.0732 11.4874 12.0732 11.0126 11.7803 10.7197L10.0607 9L11.7803 7.28033C12.0732 6.98744 12.0732 6.51256 11.7803 6.21967C11.4874 5.92678 11.0126 5.92678 10.7197 6.21967L9 7.93934L7.28033 6.21967Z" fill="#BABCBF"/>
</g>
</g>
<defs>
<clipPath id="clip0_1107_38351">
<rect width="18" height="18" fill="white"/>
</clipPath>
</defs>
</svg>
