<svg width="202.445312" height="291.201416" viewBox="0 0 202.445 291.201" fill="none" xmlns="http://www.w3.org/2000/svg" xmlns:xlink="http://www.w3.org/1999/xlink">
	<desc>
			Created with Pixso.
	</desc>
	<defs/>
	<path id="Vector 49" d="M202.445 0C202.445 1.59131 202.164 3.16895 201.598 4.73267L197.836 3.37439C198.242 2.24951 198.445 1.12476 198.445 0L202.445 0ZM196.543 12.3398C194.809 14.1326 192.625 15.989 189.996 17.9088L187.641 14.6785C190.082 12.8933 192.094 11.1863 193.672 9.55762L196.543 12.3398ZM182.969 22.5853C180.953 23.8296 178.574 25.236 175.824 26.8041L173.844 23.3297C176.551 21.7844 178.895 20.4019 180.867 19.1819L182.969 22.5853ZM168.586 30.868L161.336 34.9277L159.379 31.4375L166.633 27.3778L168.586 30.868ZM154.215 39.0553C151.688 40.5649 149.352 42.0143 147.215 43.4031L145.035 40.0492C147.215 38.6324 149.594 37.1562 152.168 35.6204L154.215 39.0553ZM140.453 48.057C138.148 49.7488 136.023 51.4314 134.082 53.1049L131.473 50.0757C133.492 48.3336 135.699 46.5856 138.09 44.8315L140.453 48.057ZM128.277 58.6534C126.359 60.7034 124.676 62.7751 123.227 64.869L119.938 62.59C121.5 60.3365 123.305 58.114 125.355 55.9222L128.277 58.6534ZM119.324 71.7349C118.242 74.1516 117.438 76.6187 116.91 79.1361L112.996 78.3152C113.582 75.5175 114.473 72.7797 115.672 70.1016L119.324 71.7349ZM116.148 86.9788C116.18 89.543 116.465 92.1699 117.012 94.8599L113.09 95.6554C112.496 92.7173 112.18 89.8395 112.152 87.0221L116.148 86.9788ZM119.184 102.47C120.059 104.873 121.125 107.326 122.379 109.828L118.805 111.622C117.48 108.982 116.352 106.388 115.426 103.84L119.184 102.47ZM126.34 116.88C127.059 118.037 127.812 119.205 128.605 120.383C129.441 121.625 130.254 122.865 131.039 124.102L127.664 126.249C126.895 125.041 126.102 123.83 125.285 122.617C124.465 121.397 123.684 120.187 122.938 118.986L126.34 116.88ZM135.449 131.463C136.883 134.011 138.207 136.545 139.426 139.065L135.824 140.804C134.641 138.359 133.355 135.898 131.965 133.423L135.449 131.463ZM142.887 146.921C143.98 149.663 144.941 152.385 145.773 155.088L141.949 156.262C141.148 153.663 140.227 151.043 139.172 148.402L142.887 146.921ZM147.91 163.35C148.523 166.264 148.977 169.15 149.273 172.007L145.293 172.418C145.012 169.698 144.582 166.95 143.996 164.173L147.91 163.35ZM149.676 180.648C149.645 183.573 149.441 186.461 149.062 189.312L145.098 188.785C145.453 186.094 145.648 183.368 145.676 180.605L149.676 180.648ZM147.371 197.866C146.633 200.659 145.719 203.408 144.629 206.112L140.918 204.617C141.945 202.067 142.809 199.476 143.504 196.844L147.371 197.866ZM140.879 214.002C139.512 216.487 137.988 218.925 136.309 221.317L133.035 219.018C134.633 216.746 136.078 214.431 137.375 212.074L140.879 214.002ZM130.98 228.147C129.125 230.296 127.141 232.401 125.02 234.46L122.23 231.59C124.27 229.613 126.172 227.595 127.949 225.535L130.98 228.147ZM118.66 240.166C116.473 241.986 114.172 243.765 111.762 245.502L109.422 242.257C111.758 240.574 113.984 238.852 116.102 237.091L118.66 240.166ZM104.75 250.241C102.359 251.758 99.8789 253.238 97.3047 254.681L95.3477 251.193C97.8555 249.785 100.277 248.342 102.609 246.863L104.75 250.241ZM89.8281 258.647C87.293 259.918 84.6836 261.154 82.0039 262.358L80.3672 258.708C82.9961 257.528 85.5508 256.316 88.0352 255.071L89.8281 258.647ZM74.25 265.661C71.6016 266.732 68.8945 267.771 66.1211 268.78L64.7539 265.021C67.4805 264.029 70.1445 263.006 72.75 261.953L74.25 265.661ZM58.2188 271.518C55.5312 272.404 52.7891 273.263 49.9961 274.095L48.8555 270.261C51.6094 269.441 54.3125 268.593 56.9648 267.719L58.2188 271.518ZM41.8516 276.401C39.1523 277.129 36.4062 277.832 33.6172 278.51L32.6719 274.624C35.4297 273.953 38.1406 273.258 40.8125 272.539L41.8516 276.401ZM25.207 280.453C22.5117 281.044 19.7773 281.613 17.0078 282.159L16.2305 278.235C18.9766 277.694 21.6797 277.13 24.3516 276.545L25.207 280.453ZM8.56641 283.736L4.28516 284.471L3.60547 280.529L7.89062 279.794L8.56641 283.736ZM19.5859 279.893L21.4688 291.201L0 283.158L17.7031 268.585L19.5859 279.893L15.6406 280.551L14.3242 272.66L16.2969 272.331L17.5703 273.875L5.21484 284.044L3.94531 282.5L4.64844 280.627L19.6289 286.24L18.9297 288.113L16.957 288.442L15.6406 280.551L19.5859 279.893ZM17.6133 280.222L18.9297 288.113L3.94531 282.5L16.2969 272.331L17.6133 280.222Z" fill="#F2D7D7" fill-opacity="1.000000" fill-rule="evenodd"/>
</svg>
