<svg width="30" height="30" viewBox="0 0 30 30" fill="none" xmlns="http://www.w3.org/2000/svg">
<path d="M13.2716 1.59373C3.31655 3.2988 3.67397 3.22263 3.14663 3.68552C3.02944 3.79099 2.85952 4.02537 2.77163 4.20701L2.60757 4.54099L2.58999 15.2636C2.57241 27.2578 2.54311 26.3086 3.00601 26.7656C3.46304 27.2168 2.99429 27.1875 10.2599 27.1875H16.7521L16.8986 27.0586C17.1095 26.8652 17.1271 26.6191 16.9337 26.4258C16.8166 26.3086 16.7404 26.3086 10.3068 26.3086H3.79702L3.6271 26.1387L3.45718 25.9687V15.3984V4.8281L3.59194 4.57029C3.89077 3.97263 4.64663 3.81443 5.22085 4.22458C5.3146 4.28904 5.74233 4.83396 6.17593 5.43747C6.60952 6.04099 7.03726 6.60349 7.12515 6.68552C7.60561 7.13084 8.08608 7.16599 8.9064 6.83201C9.44546 6.60935 9.72671 6.41013 9.72671 6.24021C9.72671 6.07615 9.59194 5.87107 9.44546 5.80076C9.31069 5.74216 9.21108 5.7656 8.66616 5.97654C8.09194 6.20505 8.02749 6.21677 7.87515 6.14646C7.76968 6.09372 7.4064 5.64841 6.87319 4.90427C6.4103 4.2656 6.0353 3.7324 6.0353 3.71482C6.0353 3.7031 6.08804 3.69138 6.14663 3.69138C6.21108 3.69138 7.01968 3.56248 7.95132 3.39841C13.4181 2.46091 19.6525 1.40623 19.6642 1.4238C19.6759 1.43552 17.672 2.26755 15.2169 3.27536C12.7619 4.28904 10.6935 5.16794 10.6232 5.2324C10.4416 5.3906 10.4474 5.64841 10.6349 5.83005C10.7111 5.91209 10.8224 5.97654 10.8751 5.97654C10.9279 5.97654 13.6349 4.88083 16.8986 3.53904C20.1564 2.19724 22.8634 1.08396 22.922 1.07224C22.9748 1.05466 23.0744 1.10154 23.1388 1.16599L23.2619 1.28904V7.2949C23.2619 13.2246 23.2619 13.3008 23.3791 13.4179C23.5548 13.5937 23.8654 13.5761 24.0177 13.3769L24.1408 13.2246L24.1291 7.12498L24.1115 1.02537L23.9826 0.790991C23.713 0.292944 23.2267 -0.00588282 22.7111 0.00583593C22.5822 0.0116953 18.3341 0.720679 13.2716 1.59373Z" fill="white"/>
<path d="M6.73828 9.3457L20.2486 9.34571" stroke="white" stroke-linecap="round"/>
<path d="M6.73828 11.6976L20.2486 11.6976" stroke="white" stroke-linecap="round"/>
<path d="M6.73828 14.0414L20.2486 14.0414" stroke="white" stroke-linecap="round"/>
<path d="M6.73828 19.251L11.9531 19.251" stroke="white" stroke-linecap="round"/>
<path d="M6.73828 21.5918L10.6907 21.5918" stroke="white" stroke-linecap="round"/>
<path d="M16.8399 20.2792L16.295 20.8183L16.1426 20.6367C15.7618 20.1855 14.9883 20.0742 14.4317 20.3906C14.1739 20.5371 14.0508 20.6777 13.5352 21.4453C12.8731 22.4296 12.8204 22.5996 13.0899 22.8339C13.4063 23.1035 13.5411 23.0156 14.127 22.1308C14.754 21.1933 14.8477 21.0937 15.1231 21.0937C15.3809 21.0937 15.4805 21.1757 15.6739 21.5624C15.8262 21.8671 16.0137 22.0312 16.1954 22.0312C16.254 22.0312 16.5587 21.7851 16.8809 21.4687L17.4551 20.9003L17.6133 21.0878C17.8653 21.3867 18.1934 21.5273 18.6329 21.5273C19.043 21.5273 19.3008 21.4335 19.5879 21.1581C19.9395 20.8359 19.9922 20.4902 19.7286 20.3027C19.5118 20.1503 19.3008 20.1972 19.0489 20.4492C18.6797 20.8242 18.3751 20.7539 18.1055 20.2206C17.7715 19.5585 17.5665 19.5703 16.8399 20.2792Z" fill="white"/>
<path d="M16.8399 20.2792L16.295 20.8183L16.1426 20.6367C15.7618 20.1855 14.9883 20.0742 14.4317 20.3906C14.1739 20.5371 14.0508 20.6777 13.5352 21.4453C12.8731 22.4296 12.8204 22.5996 13.0899 22.8339C13.4063 23.1035 13.5411 23.0156 14.127 22.1308C14.754 21.1933 14.8477 21.0937 15.1231 21.0937C15.3809 21.0937 15.4805 21.1757 15.6739 21.5624C15.8262 21.8671 16.0137 22.0312 16.1954 22.0312C16.254 22.0312 16.5587 21.7851 16.8809 21.4687L17.4551 20.9003L17.6133 21.0878C17.8653 21.3867 18.1934 21.5273 18.6329 21.5273C19.043 21.5273 19.3008 21.4335 19.5879 21.1581C19.9395 20.8359 19.9922 20.4902 19.7286 20.3027C19.5118 20.1503 19.3008 20.1972 19.0489 20.4492C18.6797 20.8242 18.3751 20.7539 18.1055 20.2206C17.7715 19.5585 17.5665 19.5703 16.8399 20.2792Z" stroke="white"/>
<g clip-path="url(#clip0_1147_46500)">
<path d="M27.3835 17.146L22.2699 15.0947L17.1562 17.146V21.867C17.3693 22.9488 18.6903 25.5257 22.2699 27.178C25.8494 25.5257 27.1705 22.9488 27.3835 21.867V17.146Z" fill="#222222" stroke="white" stroke-linecap="round" stroke-linejoin="round"/>
<path d="M20.1641 21.2671L21.6117 22.5748L24.3753 19.6978" stroke="white" stroke-linecap="round" stroke-linejoin="round"/>
</g>
<defs>
<clipPath id="clip0_1147_46500">
<rect width="13.6364" height="13.1818" fill="white" transform="translate(15.4531 14.5454)"/>
</clipPath>
</defs>
</svg>
