<svg width="40" height="41" viewBox="0 0 40 41" fill="none" xmlns="http://www.w3.org/2000/svg">
<path d="M13.4375 1.86719C11.2656 2.14062 9.38282 2.78906 7.45313 3.92188C6.60157 4.42188 6.54688 4.49219 7.14844 4.28125C9.11719 3.61719 11.2578 4.92188 11.6484 7.02344C11.6953 7.28125 11.7188 7.65625 11.6953 7.85938C11.6641 8.07031 11.6641 8.23438 11.6875 8.23438C11.7109 8.23438 11.9375 8.07812 12.1875 7.88281C14.2344 6.30469 16.8672 5.10938 19.5391 4.53125C20.3359 4.35938 20.8047 4.29688 22.7734 4.10938L23.3203 4.05469L22.2266 3.49219C19.4219 2.05469 16.3984 1.5 13.4375 1.86719Z" fill="white"/>
<path d="M5.02346 5.72656C3.72658 6.86719 2.53127 8.42969 1.68752 10.0703C-1.00779 15.3047 -0.421852 21.5938 3.19534 26.3203C3.61721 26.875 4.80471 28.125 5.32815 28.5625L5.69533 28.8672L5.57815 28.4922C4.53908 25.1484 4.42971 21.625 5.26565 18.3047C5.86721 15.9219 6.96096 13.6094 8.37502 11.7344C8.62502 11.4063 8.82815 11.1172 8.82815 11.0938C8.82815 11.0703 8.66409 11.0703 8.46096 11.1016C7.57034 11.2031 6.43752 10.7734 5.7344 10.0781C4.47658 8.82031 4.3594 6.73438 5.47658 5.46094C5.84377 5.04688 5.69533 5.13281 5.02346 5.72656ZM4.06252 13.625C4.41408 13.8047 4.68752 14.25 4.68752 14.6406C4.68752 15.2344 4.1094 15.8125 3.51565 15.8125C2.9219 15.8125 2.34377 15.2344 2.34377 14.6406C2.34377 14.2656 2.61721 13.8047 2.95315 13.6328C3.32815 13.4297 3.67971 13.4297 4.06252 13.625Z" fill="white"/>
<path d="M7.64062 6.60156C7.30469 6.77344 7.03125 7.23438 7.03125 7.60938C7.03125 8.20313 7.60938 8.78125 8.20312 8.78125C8.79688 8.78125 9.375 8.20313 9.375 7.60938C9.375 7.21875 9.10156 6.77344 8.75 6.59375C8.36719 6.39844 8.01562 6.39844 7.64062 6.60156Z" fill="white"/>
<path d="M21.9141 6.52342C18.1875 6.91405 14.7188 8.58592 12.0234 11.2734C10.1563 13.1406 8.84376 15.2656 8.03907 17.6875C6.07814 23.6484 7.58595 29.9687 12.0234 34.4141C13.8906 36.2812 16.0156 37.5937 18.4375 38.3984C24.3985 40.3594 30.7188 38.8516 35.1641 34.4141C37.8906 31.6797 39.5235 28.25 39.9141 24.4141C40.125 22.3984 39.8828 20.0937 39.2578 18.0312C39.1016 17.5312 39 17.3359 38.7891 17.1562C38.2422 16.6719 37.7031 16.75 36.9531 17.4219C36.3281 17.9766 36.0391 18.1016 35.3125 18.1094C34.8672 18.1094 34.6406 18.0781 34.3672 17.9453C33.8985 17.7344 33.3906 17.2266 33.1953 16.7812C32.9297 16.1875 32.9219 15.7578 33.1641 14.9609C33.3828 14.2656 33.3828 14.25 33.25 13.8984C33.0938 13.5 32.8438 13.2734 32.4219 13.1484C32.1641 13.0703 32.0469 13.0859 31.4922 13.2734C30.9922 13.4453 30.7734 13.4844 30.4609 13.4453C29.625 13.3437 28.8672 12.8125 28.5 12.0703C28.3594 11.789 28.3281 11.5859 28.3281 11.125C28.3359 10.3984 28.4609 10.1094 29.0156 9.48436C29.6875 8.73436 29.7656 8.1953 29.2813 7.64842C29.1016 7.43749 28.9063 7.33592 28.4063 7.17967C26.3594 6.55467 23.9375 6.31248 21.9141 6.52342ZM20.7109 13.5469C22.5469 13.8984 23.8281 15.6953 23.5313 17.5C23.2813 19.0312 22.125 20.1875 20.5938 20.4375C18.3359 20.8125 16.25 18.7266 16.625 16.4687C16.9531 14.5 18.7891 13.1875 20.7109 13.5469ZM30 20.6562C30.3516 20.8359 30.625 21.2812 30.625 21.6719C30.625 22.2656 30.0469 22.8437 29.4531 22.8437C29.0625 22.8437 28.6172 22.5703 28.4375 22.2187C28.2422 21.8281 28.2422 21.5156 28.4375 21.125C28.7266 20.5547 29.4063 20.3516 30 20.6562ZM13.5938 23C13.9453 23.1797 14.2188 23.625 14.2188 24.0156C14.2188 24.6094 13.6406 25.1875 13.0469 25.1875C12.6563 25.1875 12.2109 24.9141 12.0313 24.5625C11.8359 24.1719 11.8359 23.8594 12.0313 23.4687C12.3203 22.8984 13 22.6953 13.5938 23ZM19.8594 25.4062C20.3203 25.6094 20.8281 26.1172 21.0391 26.5859C21.1641 26.8516 21.2109 27.1016 21.2109 27.5312C21.2109 28.2422 21.0234 28.6953 20.5469 29.1719C20.0703 29.6484 19.6172 29.8359 18.9063 29.8359C16.2813 29.8359 15.6797 26.2109 18.1641 25.3203C18.6484 25.1484 19.3594 25.1797 19.8594 25.4062ZM27.7422 27.6094C29.5781 27.9609 30.8594 29.7578 30.5625 31.5625C30.3125 33.0937 29.1563 34.25 27.625 34.5C25.3672 34.875 23.2813 32.7891 23.6563 30.5312C23.9844 28.5625 25.8203 27.25 27.7422 27.6094Z" fill="white"/>
<path d="M19.5156 15.9766C19.1797 16.1484 18.9062 16.6094 18.9062 16.9844C18.9062 17.375 19.1797 17.8203 19.5312 18C19.6953 18.0859 19.9453 18.1562 20.0781 18.1562C20.6719 18.1562 21.25 17.5781 21.25 16.9844C21.25 16.5938 20.9766 16.1484 20.625 15.9688C20.2422 15.7734 19.8906 15.7734 19.5156 15.9766Z" fill="white"/>
<path d="M26.5469 30.0391C26.2109 30.2109 25.9375 30.6719 25.9375 31.0469C25.9375 31.6406 26.5156 32.2188 27.1094 32.2188C27.7031 32.2188 28.2812 31.6406 28.2812 31.0469C28.2812 30.6563 28.0078 30.2109 27.6562 30.0313C27.2734 29.8359 26.9219 29.8359 26.5469 30.0391Z" fill="white"/>
</svg>
