<svg width="18" height="19" viewBox="0 0 18 19" fill="none" xmlns="http://www.w3.org/2000/svg">
<g id="Fill">
<path id="Exclude" fill-rule="evenodd" clip-rule="evenodd" d="M15.6667 9.83433V17.3343C15.6667 17.7946 15.2936 18.1677 14.8334 18.1677H3.16671C2.70648 18.1677 2.33338 17.7946 2.33338 17.3343V9.83433C2.33338 9.37409 1.96029 9.00099 1.50005 9.00099H1.14238C0.382376 9.00099 0.0190375 8.06692 0.57928 7.55337L8.42482 0.361617C8.74844 0.0649677 9.2467 0.0702576 9.56395 0.37371L17.0826 7.56546C17.6256 8.08483 17.2533 9.00099 16.5019 9.00099C16.0417 9.00099 15.6667 9.37409 15.6667 9.83433ZM5.66672 10.6677C5.20648 10.6677 4.83338 11.0408 4.83338 11.501C4.83338 11.9612 5.20648 12.3343 5.66672 12.3343H12.3334C12.7936 12.3343 13.1667 11.9612 13.1667 11.501C13.1667 11.0408 12.7936 10.6677 12.3334 10.6677H5.66672ZM5.66672 14.001C5.20648 14.001 4.83338 14.3741 4.83338 14.8343C4.83338 15.2946 5.20648 15.6677 5.66672 15.6677H12.3334C12.7936 15.6677 13.1667 15.2946 13.1667 14.8343C13.1667 14.3741 12.7936 14.001 12.3334 14.001H5.66672Z" fill="black"/>
</g>
</svg>
