<svg width="20" height="20" viewBox="0 0 20 20" fill="none" xmlns="http://www.w3.org/2000/svg">
<g id="Phone 9">
<path id="Vector" d="M6.42289 1.73458C6.42289 1.73458 2.62935 1.31825 1.78634 2.56726C0.77473 8.89566 6.42289 14.0861 9.37342 15.8902C11.9024 17.278 16.9605 19.3875 17.6349 17.7221C18.4779 15.6404 18.4779 14.2249 18.0564 13.3922C17.7192 12.726 14.853 11.588 13.5885 11.3105L11.9025 13.1424C9.87924 12.8093 7.2659 9.78386 6.42289 8.39606L8.10891 6.73069C8.10891 4.39917 6.98489 2.42848 6.42289 1.73458Z" fill="#222222"/>
<path id="Vector_2" d="M14.827 7.98351C14.6228 7.2798 14.2375 6.64236 13.7098 6.13526C13.182 5.62817 12.5304 5.26928 11.8204 5.09468M18.3333 6.49972C18.0424 5.22554 17.3611 4.07456 16.385 3.20809C15.4088 2.34161 14.1867 1.80308 12.8899 1.66797" stroke="#222222" stroke-width="1.66667" stroke-linecap="round" stroke-linejoin="round"/>
</g>
</svg>
