<svg width="24" height="24" viewBox="0 0 24 24" fill="none" xmlns="http://www.w3.org/2000/svg">
<path d="M7.70751 2.07993C7.70751 2.07993 3.15527 1.58034 2.14366 3.07915C0.929725 10.6732 7.70752 16.9017 11.2482 19.0667C14.283 20.7321 20.3527 23.2635 21.162 21.265C22.1736 18.767 22.1736 17.0683 21.6678 16.0691C21.2631 15.2697 17.8236 13.9041 16.3062 13.571L14.283 15.7693C11.8551 15.3696 8.71913 11.7391 7.70751 10.0737L9.73074 8.07526C9.73074 5.27744 8.38192 2.91262 7.70751 2.07993Z" fill="white"/>
<path d="M17.7924 9.57865C17.5475 8.73419 17.0851 7.96927 16.4518 7.36075C15.8184 6.75224 15.0365 6.32158 14.1846 6.11206M22 7.7981C21.651 6.26909 20.8334 4.88791 19.662 3.84814C18.4906 2.80837 17.0241 2.16213 15.4679 2" stroke="white" stroke-width="2" stroke-linecap="round" stroke-linejoin="round"/>
</svg>
