<svg width="24" height="24" viewBox="0 0 24 24" fill="none" xmlns="http://www.w3.org/2000/svg">
<path fill-rule="evenodd" clip-rule="evenodd" d="M11.9966 0C6.47374 0 1.99658 4.47715 1.99658 10C1.99658 13.0729 3.53757 15.8825 5.27865 18.0924C7.03234 20.3183 9.08404 22.056 10.3105 23.0047C11.3095 23.7774 12.6837 23.7774 13.6826 23.0047C14.9091 22.056 16.9608 20.3183 18.7145 18.0924C20.4556 15.8825 21.9966 13.0729 21.9966 10C21.9966 4.47715 17.5194 0 11.9966 0ZM11.9962 7C10.3393 7 8.99618 8.34315 8.99618 10C8.99618 11.6569 10.3393 13 11.9962 13C13.653 13 14.9962 11.6569 14.9962 10C14.9962 8.34315 13.653 7 11.9962 7Z" fill="white"/>
</svg>
