<svg width="22" height="22" viewBox="0 0 22 22" fill="#222222" xmlns="http://www.w3.org/2000/svg">
<path fill-rule="evenodd" clip-rule="evenodd" d="M11 0C4.92487 0 0 4.92487 0 11C0 17.0751 4.92487 22 11 22C17.0751 22 22 17.0751 22 11C22 4.92487 17.0751 0 11 0ZM12 6.5C12 5.94772 11.5523 5.5 11 5.5C10.4477 5.5 10 5.94772 10 6.5V11C10 11.3344 10.1671 11.6466 10.4453 11.8321L13.4453 13.8321C13.9048 14.1384 14.5257 14.0142 14.8321 13.5547C15.1384 13.0952 15.0142 12.4743 14.5547 12.1679L12 10.4648V6.5Z" fill="#222222"/>
</svg>
