<svg width="19" height="19" viewBox="0 0 19 19" fill="none" xmlns="http://www.w3.org/2000/svg">
<g id="Fill">
<path id="Vector (Stroke)" fill-rule="evenodd" clip-rule="evenodd" d="M0.666626 1.49935C0.666626 1.03911 1.03972 0.666016 1.49996 0.666016H7.14811C7.60835 0.666016 7.98144 1.03911 7.98144 1.49935V7.1475C7.98144 7.60773 7.60835 7.98083 7.14811 7.98083H1.49996C1.03972 7.98083 0.666626 7.60773 0.666626 7.1475V1.49935ZM9.18515 1.49935C9.18515 1.03911 9.55824 0.666016 10.0185 0.666016H15.6666C16.1269 0.666016 16.5 1.03911 16.5 1.49935V7.1475C16.5 7.60773 16.1269 7.98083 15.6666 7.98083H10.0185C9.55824 7.98083 9.18515 7.60773 9.18515 7.1475V1.49935ZM0.666626 10.0179C0.666626 9.55763 1.03972 9.18454 1.49996 9.18454H7.14811C7.60835 9.18454 7.98144 9.55763 7.98144 10.0179V15.666C7.98144 16.1263 7.60835 16.4993 7.14811 16.4993H1.49996C1.03972 16.4993 0.666626 16.1263 0.666626 15.666V10.0179ZM9.18515 10.0179C9.18515 9.55763 9.55824 9.18454 10.0185 9.18454H17.3333C17.7935 9.18454 18.1666 9.55763 18.1666 10.0179V17.3327C18.1666 17.7929 17.7935 18.166 17.3333 18.166H10.0185C9.55824 18.166 9.18515 17.7929 9.18515 17.3327V10.0179Z" fill="black"/>
</g>
</svg>
