<svg width="20" height="18" viewBox="0 0 20 18" fill="none" xmlns="http://www.w3.org/2000/svg">
<g id="Fill">
<g id="Vector 40">
<path d="M19.1643 10.8128V14.4786H17.3315L17.3314 16.7697H13.6657L13.6657 14.4786H6.3342L6.33417 16.7697H2.66842L2.66845 14.4786H0.835571V10.8128C0.835571 10.7146 1.66956 7.25913 1.66891 7.14707H3.58489L4.99995 1.64844H13.6657H14.9999L16.415 7.14707H18.3333C18.3384 7.40163 19.1643 10.6092 19.1643 10.8128Z" fill="black"/>
<path d="M16.415 7.14707C13.9712 7.14707 6.51749 7.14707 3.58489 7.14707M16.415 7.14707L14.9999 1.64844L13.6657 1.64844C13.6657 1.64844 6.46625 1.64844 4.99995 1.64844L3.58489 7.14707M16.415 7.14707C18.8589 7.14707 18.3333 7.14707 18.3333 7.14707C18.3384 7.40163 19.1643 10.6092 19.1643 10.8128V14.4786H17.3315M3.58489 7.14707C0.887926 7.14707 1.66891 7.14707 1.66891 7.14707C1.66956 7.25913 0.835571 10.7146 0.835571 10.8128V14.4786H2.66845M2.66845 14.4786H6.3342M2.66845 14.4786L2.66842 16.7697H6.33417L6.3342 14.4786M6.3342 14.4786H13.6657M17.3315 14.4786H13.6657M17.3315 14.4786L17.3314 16.7697H13.6657L13.6657 14.4786" stroke="black" stroke-width="1.66667" stroke-linecap="round" stroke-linejoin="round"/>
</g>
<path id="Vector 49" d="M15.4166 6.33105H4.58325L5.2781 3.00473C5.35878 2.6185 5.69927 2.3418 6.09383 2.3418H13.903C14.2973 2.3418 14.6376 2.61813 14.7186 3.00402L15.4166 6.33105Z" fill="#fff"/>
<path id="Union" fill-rule="evenodd" clip-rule="evenodd" d="M2.75146 9.89779C2.75146 9.43755 3.12456 9.06445 3.5848 9.06445H5.41767C5.87791 9.06445 6.25101 9.43755 6.25101 9.89779C6.25101 10.358 5.87791 10.7311 5.41767 10.7311H3.5848C3.12456 10.7311 2.75146 10.358 2.75146 9.89779ZM13.7487 9.89779C13.7487 9.43755 14.1218 9.06445 14.5821 9.06445H16.4149C16.8752 9.06445 17.2483 9.43755 17.2483 9.89779C17.2483 10.358 16.8752 10.7311 16.4149 10.7311H14.5821C14.1218 10.7311 13.7487 10.358 13.7487 9.89779Z" fill="#fff"/>
</g>
</svg>
