<svg width="160" height="38" viewBox="0 0 160 38" fill="none" xmlns="http://www.w3.org/2000/svg">
<g clip-path="url(#clip0_1241_44650)">
<path d="M37.9999 16.6617L23.5234 24.7812L27.8821 27.4721L37.7544 22.1248C36.91 26.3197 34.63 30.0943 31.3022 32.8063C27.9744 35.5184 23.8044 37.0005 19.5015 37.0005C15.1985 37.0005 11.0285 35.5184 7.70067 32.8063C4.37287 30.0943 2.09286 26.3197 1.2485 22.1248L11.1995 27.4064L15.4764 24.7812L0.999878 16.6617C1.13816 15.244 1.44342 13.8473 1.90938 12.5003L19.4857 22.4752L37.0904 12.4972C37.5563 13.8441 37.8616 15.2408 37.9999 16.6586V16.6617Z" fill="white"/>
<path d="M19.5088 0.000457764L3.56262 8.96475H13.8818V14.8158L19.4144 17.951L25.0885 14.7344V8.96475H35.2724L35.4109 8.88653L19.5088 0.000457764Z" fill="white"/>
<path d="M61.5347 10.7353C62.5449 10.9619 63.4398 11.5476 64.0545 12.3846C64.6594 13.2467 64.9715 14.2819 64.9445 15.3365C64.9618 16.0512 64.8274 16.7615 64.5502 17.4199C64.273 18.0783 63.8594 18.6698 63.3369 19.155C62.1899 20.1925 60.6847 20.7382 59.1428 20.6756H50.2985V2.60639H58.7312C60.4037 2.60639 61.7016 3.05551 62.6249 3.95376C63.0647 4.34762 63.4161 4.83094 63.6558 5.37167C63.8956 5.9124 64.0182 6.49817 64.0156 7.09016C64.0159 7.88769 63.7775 8.66688 63.3314 9.32645C62.9073 9.98591 62.2743 10.4823 61.5347 10.7353ZM57.8801 6.44722H54.7596V9.51094H57.6854C58.1808 9.54461 58.6708 9.39108 59.0594 9.08046C59.216 8.94087 59.34 8.7683 59.4227 8.57504C59.5054 8.38178 59.5447 8.17257 59.5378 7.96231C59.5401 7.76054 59.5008 7.56047 59.4223 7.37474C59.3437 7.18902 59.2278 7.02168 59.0816 6.8833C58.9197 6.73487 58.7302 6.61996 58.524 6.54514C58.3179 6.47031 58.0991 6.43704 57.8801 6.44722ZM54.7596 16.7565H58.1694C58.7374 16.7979 59.2988 16.6132 59.7324 16.2422C59.9106 16.0821 60.0524 15.8855 60.1483 15.6656C60.2443 15.4457 60.2922 15.2076 60.2887 14.9675C60.2921 14.7241 60.2443 14.4828 60.1485 14.2592C60.0526 14.0357 59.9108 13.8351 59.7324 13.6705C59.3307 13.3129 58.8054 13.1282 58.2695 13.1561H54.7596V16.7565Z" fill="white"/>
<path d="M76.0262 20.9726C74.7777 21.0015 73.5363 20.7762 72.3767 20.3102C71.2172 19.8442 70.1634 19.1472 69.2789 18.2611C67.5479 16.4847 66.5785 14.0973 66.5785 11.6109C66.5785 9.12452 67.5479 6.73711 69.2789 4.96075C71.0828 3.21796 73.4879 2.24457 75.99 2.24457C78.4922 2.24457 80.8973 3.21796 82.7012 4.96075C84.0211 6.27191 84.9205 7.94995 85.2839 9.77906C85.6472 11.6082 85.4578 13.5047 84.74 15.2247C84.0222 16.9448 82.8088 18.4096 81.256 19.431C79.7031 20.4523 77.8818 20.9833 76.0262 20.9558V20.9726ZM76.0262 16.4385C76.6459 16.4501 77.2615 16.3346 77.8353 16.0991C78.4091 15.8636 78.9292 15.513 79.3637 15.0688C79.8139 14.6172 80.1671 14.0775 80.4015 13.4833C80.6359 12.889 80.7465 12.2527 80.7265 11.6137C80.7334 10.9729 80.6119 10.3372 80.3691 9.74456C80.1264 9.15192 79.7674 8.61447 79.3136 8.16424C78.8767 7.72137 78.3568 7.36984 77.784 7.12995C77.2111 6.89006 76.5967 6.76656 75.9761 6.76656C75.3556 6.76656 74.7412 6.89006 74.1683 7.12995C73.5955 7.36984 73.0756 7.72137 72.6386 8.16424C71.7689 9.09681 71.2849 10.3271 71.2849 11.6053C71.2849 12.8836 71.7689 14.1139 72.6386 15.0464C73.073 15.4986 73.5957 15.8556 74.1739 16.0952C74.752 16.3347 75.3732 16.4516 75.9984 16.4385H76.0262Z" fill="white"/>
<path d="M96.421 20.9445C95.2056 20.9791 93.9954 20.7695 92.8616 20.3279C91.7278 19.8863 90.6932 19.2216 89.8183 18.3727C88.9366 17.5011 88.2452 16.4544 87.7884 15.2993C87.3315 14.1442 87.1192 12.906 87.165 11.6639C87.1295 10.4248 87.3444 9.19144 87.7968 8.0383C88.2492 6.88517 88.9297 5.83628 89.797 4.9551C90.6644 4.07392 91.7006 3.37877 92.843 2.91172C93.9854 2.44468 95.2102 2.21544 96.4433 2.23789C97.9789 2.21994 99.4991 2.54655 100.893 3.19391C102.183 3.79424 103.308 4.70198 104.17 5.83832L101.272 8.89645C99.8772 7.40559 98.366 6.66016 96.7381 6.66016C96.092 6.64541 95.4497 6.76379 94.8508 7.00802C94.252 7.25224 93.7092 7.61713 93.256 8.08021C92.7969 8.55671 92.4373 9.12076 92.1985 9.73911C91.9596 10.3575 91.8464 11.0176 91.8653 11.6806C91.8479 12.3326 91.9621 12.9813 92.2011 13.5877C92.4401 14.194 92.799 14.7454 93.256 15.2084C93.7091 15.6639 94.2492 16.0225 94.8438 16.2627C95.4384 16.5029 96.0752 16.6197 96.7158 16.6061C97.6131 16.5982 98.4967 16.384 99.2989 15.9799C100.101 15.5758 100.801 14.9925 101.344 14.2747L104.364 17.1931C103.468 18.3386 102.328 19.2672 101.027 19.9102C99.5944 20.616 98.016 20.9705 96.421 20.9445Z" fill="white"/>
<path d="M109.794 20.6756H104.504L110.111 11.5516L104.972 2.60639H110.206L113.059 8.14122L116.18 2.60639H121.464L115.957 11.5516L121.342 20.6868H116.13L113.009 14.9787L109.794 20.6756Z" fill="white"/>
<path d="M130.773 20.9731C129.525 21.0017 128.284 20.7762 127.124 20.3103C125.965 19.8443 124.911 19.1474 124.026 18.2616C122.295 16.4853 121.326 14.0979 121.326 11.6114C121.326 9.12504 122.295 6.73763 124.026 4.96127C125.831 3.21812 128.237 2.24457 130.74 2.24457C133.243 2.24457 135.649 3.21812 137.454 4.96127C138.776 6.27407 139.676 7.95473 140.038 9.78653C140.401 11.6183 140.209 13.5173 139.488 15.2385C138.767 16.9598 137.549 18.4244 135.992 19.4435C134.434 20.4626 132.609 20.9896 130.751 20.9564L130.773 20.9731ZM130.773 16.439C131.393 16.4513 132.009 16.3361 132.583 16.1006C133.157 15.865 133.677 15.5141 134.111 15.0693C134.562 14.618 134.916 14.0785 135.151 13.4843C135.387 12.89 135.498 12.2536 135.479 11.6142C135.485 10.9736 135.363 10.3383 135.12 9.7458C134.878 9.15335 134.519 8.61576 134.066 8.16476C133.63 7.72189 133.11 7.37036 132.537 7.13047C131.964 6.89058 131.35 6.76708 130.729 6.76708C130.108 6.76708 129.494 6.89058 128.921 7.13047C128.348 7.37036 127.828 7.72189 127.392 8.16476C126.522 9.09733 126.038 10.3276 126.038 11.6059C126.038 12.8841 126.522 14.1144 127.392 15.047C127.825 15.5002 128.348 15.858 128.926 16.0976C129.504 16.3372 130.126 16.4535 130.751 16.439H130.773Z" fill="white"/>
<path d="M157.09 2.60651V16.4659H159.065V24.3768H154.531V20.7037H145.515V24.3768H140.959V16.438H142.628C143.881 14.0414 144.782 10.2714 145.331 5.12793L145.626 2.57856L157.09 2.60651ZM147.322 16.4659H152.562V6.86665H149.564L149.392 8.04071C149.007 10.907 148.314 13.7228 147.322 16.438V16.4659Z" fill="white"/>
<path d="M50.5438 36.9702V35.1921H50.801C50.9423 35.1921 51.0633 35.1366 51.1642 35.0256C51.2701 34.9147 51.3584 34.7381 51.429 34.496C51.5047 34.2539 51.5627 33.9361 51.6031 33.5426C51.6485 33.1441 51.6812 32.6574 51.7014 32.0823L51.7393 30.569H55.1971V35.1921H55.8781V36.9702H55.129V35.9412H51.2928V36.9702H50.5438ZM51.8754 35.1921H54.3421V31.3181H52.5262L52.5035 32.1958C52.4883 32.7759 52.4581 33.2677 52.4127 33.6713C52.3673 34.0698 52.3017 34.3926 52.2159 34.6398C52.1302 34.8869 52.0167 35.071 51.8754 35.1921ZM59.1275 35.979C58.7391 35.979 58.3886 35.9033 58.0758 35.752C57.7631 35.6007 57.4932 35.3964 57.2662 35.1391C57.0392 34.8768 56.8627 34.5843 56.7366 34.2614C56.6155 33.9336 56.555 33.5981 56.555 33.2551C56.555 32.897 56.6205 32.5565 56.7517 32.2336C56.8828 31.9058 57.0644 31.6157 57.2965 31.3635C57.5285 31.1062 57.8009 30.9045 58.1136 30.7582C58.4314 30.6069 58.7744 30.5312 59.1427 30.5312C59.526 30.5312 59.8741 30.6094 60.1868 30.7658C60.5046 30.9221 60.7745 31.1315 60.9964 31.3938C61.2234 31.6561 61.3975 31.9486 61.5185 32.2715C61.6446 32.5943 61.7077 32.9247 61.7077 33.2627C61.7077 33.6208 61.6421 33.9638 61.511 34.2917C61.3849 34.6145 61.2058 34.9046 60.9737 35.1618C60.7417 35.4141 60.4668 35.6133 60.149 35.7596C59.8363 35.9059 59.4958 35.979 59.1275 35.979ZM57.4175 33.2551C57.4175 33.5073 57.4579 33.752 57.5386 33.989C57.6193 34.2261 57.7328 34.438 57.8791 34.6246C58.0304 34.8062 58.212 34.95 58.4239 35.0559C58.6357 35.1618 58.8728 35.2148 59.1351 35.2148C59.4075 35.2148 59.6496 35.1593 59.8615 35.0483C60.0733 34.9374 60.2499 34.7886 60.3911 34.6019C60.5374 34.4102 60.6484 34.1984 60.7241 33.9663C60.7997 33.7293 60.8376 33.4922 60.8376 33.2551C60.8376 33.0029 60.7972 32.7608 60.7165 32.5287C60.6408 32.2916 60.5273 32.0823 60.376 31.9007C60.2247 31.7141 60.0431 31.5678 59.8312 31.4619C59.6244 31.3559 59.3924 31.303 59.1351 31.303C58.8627 31.303 58.6206 31.3585 58.4087 31.4694C58.1969 31.5804 58.0178 31.7292 57.8715 31.9159C57.7252 32.1025 57.6117 32.3118 57.531 32.5439C57.4554 32.7759 57.4175 33.013 57.4175 33.2551ZM62.3959 33.2173C62.3959 32.8894 62.4539 32.5691 62.5699 32.2563C62.6859 31.9386 62.8549 31.651 63.0769 31.3938C63.3038 31.1315 63.5788 30.9247 63.9016 30.7733C64.2244 30.617 64.5901 30.5388 64.9987 30.5388C65.483 30.5388 65.9016 30.6497 66.2547 30.8717C66.6078 31.0886 66.8701 31.3685 67.0416 31.7116L66.3758 32.158C66.2749 31.9411 66.1463 31.7696 65.9899 31.6435C65.8386 31.5174 65.6721 31.4291 65.4905 31.3786C65.314 31.3282 65.14 31.303 64.9685 31.303C64.686 31.303 64.4388 31.361 64.2269 31.477C64.0151 31.588 63.836 31.7368 63.6897 31.9234C63.5485 32.1101 63.44 32.3194 63.3644 32.5514C63.2938 32.7835 63.2584 33.0155 63.2584 33.2475C63.2584 33.5048 63.3013 33.7545 63.3871 33.9966C63.4728 34.2337 63.5914 34.4456 63.7427 34.6322C63.8991 34.8138 64.0832 34.9575 64.295 35.0635C64.5069 35.1694 64.7389 35.2224 64.9912 35.2224C65.1627 35.2224 65.3417 35.1921 65.5284 35.1316C65.715 35.071 65.8865 34.9777 66.0429 34.8516C66.2043 34.7205 66.3304 34.549 66.4212 34.3371L67.1249 34.7381C67.0139 35.0055 66.8399 35.2325 66.6028 35.4191C66.3708 35.6057 66.1085 35.747 65.8159 35.8428C65.5284 35.9387 65.2434 35.9866 64.9609 35.9866C64.5826 35.9866 64.237 35.9084 63.9243 35.752C63.6115 35.5906 63.3417 35.3787 63.1147 35.1164C62.8877 34.8491 62.7111 34.5515 62.585 34.2236C62.4589 33.8907 62.3959 33.5552 62.3959 33.2173ZM72.0021 31.3181H70.2165V35.9412H69.3615V31.3181H67.5682V30.569H72.0021V31.3181ZM73.4186 35.9714V35.2602H73.8045C73.9306 35.2602 74.0265 35.2299 74.0921 35.1694C74.1576 35.1089 74.2207 35.0181 74.2812 34.897L74.4401 34.549L72.2534 30.569H73.1917L74.826 33.6788L76.2106 30.569H77.111L74.9319 35.298C74.8109 35.5452 74.6772 35.7192 74.5309 35.8201C74.3897 35.921 74.1955 35.9714 73.9483 35.9714H73.4186ZM77.7987 35.9412V30.569H82.0435V35.9412H81.1885V31.3181H78.6461V35.9412H77.7987ZM87.8216 30.569V35.9412H86.9666V33.5729H84.2578V35.9412H83.4104V30.569H84.2578V32.8163H86.9666V30.569H87.8216ZM89.1848 35.9412V30.569H90.0322V32.5514H91.2353C91.6287 32.5514 91.9591 32.622 92.2265 32.7633C92.4989 32.8995 92.7032 33.0937 92.8393 33.3459C92.9806 33.5981 93.0512 33.8957 93.0512 34.2387C93.0512 34.5616 92.9831 34.8541 92.8469 35.1164C92.7107 35.3737 92.5115 35.5755 92.2492 35.7218C91.9869 35.868 91.6666 35.9412 91.2882 35.9412H89.1848ZM90.0322 35.2375H91.1672C91.4043 35.2375 91.5985 35.1921 91.7498 35.1013C91.9011 35.0105 92.0096 34.8894 92.0751 34.7381C92.1458 34.5817 92.1811 34.4153 92.1811 34.2387C92.1811 34.0672 92.1483 33.9058 92.0827 33.7545C92.0222 33.6032 91.9162 33.4821 91.7649 33.3913C91.6186 33.3005 91.4169 33.2551 91.1596 33.2551H90.0322V35.2375ZM93.8986 35.9412V30.5766H94.7536V35.9412H93.8986ZM99.7893 35.1921V35.9412H96.1045V30.569H99.7212V31.3181H96.9519V32.8465H99.3505V33.5502H96.9519V35.1921H99.7893ZM104.15 30.569H104.952L107.041 35.9412H106.148L105.58 34.4809H103.507L102.947 35.9412H102.047L104.15 30.569ZM105.414 33.8529L104.551 31.4997L103.658 33.8529H105.414ZM112.078 34.5565C112.078 34.844 112.003 35.0912 111.851 35.298C111.705 35.5048 111.506 35.6637 111.254 35.7747C111.001 35.8857 110.724 35.9412 110.421 35.9412H107.856V30.569H110.626C110.878 30.569 111.095 30.6371 111.276 30.7733C111.463 30.9045 111.604 31.076 111.7 31.2878C111.801 31.4947 111.851 31.7116 111.851 31.9386C111.851 32.2009 111.783 32.448 111.647 32.6801C111.516 32.9071 111.327 33.076 111.08 33.187C111.387 33.2778 111.629 33.4443 111.806 33.6864C111.988 33.9235 112.078 34.2135 112.078 34.5565ZM111.208 34.3976C111.208 34.2463 111.175 34.1101 111.11 33.989C111.049 33.8629 110.964 33.7621 110.853 33.6864C110.747 33.6057 110.621 33.5653 110.474 33.5653H108.704V35.2072H110.421C110.573 35.2072 110.706 35.1719 110.822 35.1013C110.943 35.0256 111.037 34.9273 111.102 34.8062C111.173 34.6801 111.208 34.5439 111.208 34.3976ZM108.704 31.303V32.8844H110.262C110.404 32.8844 110.53 32.8516 110.641 32.786C110.752 32.7154 110.84 32.622 110.906 32.506C110.971 32.385 111.004 32.2488 111.004 32.0974C111.004 31.9411 110.974 31.8049 110.913 31.6889C110.853 31.5678 110.769 31.4745 110.663 31.4089C110.563 31.3383 110.444 31.303 110.308 31.303H108.704ZM117.011 31.3181H115.226V35.9412H114.371V31.3181H112.577V30.569H117.011V31.3181ZM119.967 35.979C119.579 35.979 119.228 35.9033 118.916 35.752C118.603 35.6007 118.333 35.3964 118.106 35.1391C117.879 34.8768 117.702 34.5843 117.576 34.2614C117.455 33.9336 117.395 33.5981 117.395 33.2551C117.395 32.897 117.46 32.5565 117.591 32.2336C117.723 31.9058 117.904 31.6157 118.136 31.3635C118.368 31.1062 118.641 30.9045 118.953 30.7582C119.271 30.6069 119.614 30.5312 119.982 30.5312C120.366 30.5312 120.714 30.6094 121.027 30.7658C121.344 30.9221 121.614 31.1315 121.836 31.3938C122.063 31.6561 122.237 31.9486 122.358 32.2715C122.484 32.5943 122.547 32.9247 122.547 33.2627C122.547 33.6208 122.482 33.9638 122.351 34.2917C122.225 34.6145 122.046 34.9046 121.814 35.1618C121.581 35.4141 121.307 35.6133 120.989 35.7596C120.676 35.9059 120.336 35.979 119.967 35.979ZM118.257 33.2551C118.257 33.5073 118.298 33.752 118.378 33.989C118.459 34.2261 118.573 34.438 118.719 34.6246C118.87 34.8062 119.052 34.95 119.264 35.0559C119.476 35.1618 119.713 35.2148 119.975 35.2148C120.247 35.2148 120.489 35.1593 120.701 35.0483C120.913 34.9374 121.09 34.7886 121.231 34.6019C121.377 34.4102 121.488 34.1984 121.564 33.9663C121.639 33.7293 121.677 33.4922 121.677 33.2551C121.677 33.0029 121.637 32.7608 121.556 32.5287C121.481 32.2916 121.367 32.0823 121.216 31.9007C121.064 31.7141 120.883 31.5678 120.671 31.4619C120.464 31.3559 120.232 31.303 119.975 31.303C119.702 31.303 119.46 31.3585 119.249 31.4694C119.037 31.5804 118.858 31.7292 118.711 31.9159C118.565 32.1025 118.452 32.3118 118.371 32.5439C118.295 32.7759 118.257 33.013 118.257 33.2551ZM128.093 35.9412V32.1126L126.512 35.0181H126.013L124.424 32.1126V35.9412H123.576V30.569H124.484L126.262 33.8529L128.04 30.569H128.948V35.9412H128.093ZM132.543 35.979C132.155 35.979 131.804 35.9033 131.491 35.752C131.179 35.6007 130.909 35.3964 130.682 35.1391C130.455 34.8768 130.278 34.5843 130.152 34.2614C130.031 33.9336 129.971 33.5981 129.971 33.2551C129.971 32.897 130.036 32.5565 130.167 32.2336C130.299 31.9058 130.48 31.6157 130.712 31.3635C130.944 31.1062 131.217 30.9045 131.529 30.7582C131.847 30.6069 132.19 30.5312 132.558 30.5312C132.942 30.5312 133.29 30.6094 133.603 30.7658C133.92 30.9221 134.19 31.1315 134.412 31.3938C134.639 31.6561 134.813 31.9486 134.934 32.2715C135.06 32.5943 135.123 32.9247 135.123 33.2627C135.123 33.6208 135.058 33.9638 134.927 34.2917C134.801 34.6145 134.621 34.9046 134.389 35.1618C134.157 35.4141 133.882 35.6133 133.565 35.7596C133.252 35.9059 132.911 35.979 132.543 35.979ZM130.833 33.2551C130.833 33.5073 130.874 33.752 130.954 33.989C131.035 34.2261 131.148 34.438 131.295 34.6246C131.446 34.8062 131.628 34.95 131.84 35.0559C132.051 35.1618 132.288 35.2148 132.551 35.2148C132.823 35.2148 133.065 35.1593 133.277 35.0483C133.489 34.9374 133.666 34.7886 133.807 34.6019C133.953 34.4102 134.064 34.1984 134.14 33.9663C134.215 33.7293 134.253 33.4922 134.253 33.2551C134.253 33.0029 134.213 32.7608 134.132 32.5287C134.056 32.2916 133.943 32.0823 133.792 31.9007C133.64 31.7141 133.459 31.5678 133.247 31.4619C133.04 31.3559 132.808 31.303 132.551 31.303C132.278 31.303 132.036 31.3585 131.824 31.4694C131.613 31.5804 131.433 31.7292 131.287 31.9159C131.141 32.1025 131.027 32.3118 130.947 32.5439C130.871 32.7759 130.833 33.013 130.833 33.2551ZM136.16 35.9412V30.569H139.935V31.3105H137.007V32.8163H138.581C139.176 32.8163 139.622 32.9575 139.92 33.24C140.218 33.5174 140.367 33.8856 140.367 34.3447C140.367 34.6524 140.301 34.9273 140.17 35.1694C140.044 35.4065 139.852 35.5956 139.595 35.7369C139.343 35.8731 139.022 35.9412 138.634 35.9412H136.16ZM137.007 35.1997H138.52C138.752 35.1997 138.939 35.1568 139.08 35.071C139.227 34.9853 139.33 34.8768 139.39 34.7457C139.456 34.6095 139.489 34.4683 139.489 34.322C139.489 34.1757 139.461 34.0395 139.406 33.9134C139.35 33.7873 139.249 33.6864 139.103 33.6107C138.962 33.53 138.762 33.4897 138.505 33.4897H137.007V35.1997ZM141.351 35.9412V30.569H142.198V34.7457L145.066 30.569H145.861V35.9412H145.013V31.8326L142.176 35.9412H141.351ZM150.746 35.9412V31.3181H148.952L148.922 32.3169C148.892 33.0382 148.834 33.6359 148.748 34.1101C148.662 34.5792 148.539 34.95 148.377 35.2224C148.216 35.4897 148.014 35.6814 147.772 35.7974C147.53 35.9084 147.24 35.9639 146.902 35.9639V35.2224C147.089 35.2224 147.252 35.1795 147.394 35.0937C147.535 35.0029 147.653 34.844 147.749 34.6171C147.85 34.3901 147.928 34.0723 147.984 33.6637C148.044 33.2501 148.085 32.7229 148.105 32.0823L148.158 30.569H151.601V35.9412H150.746ZM153.003 35.9412V30.569H153.851V34.7457L156.718 30.569H157.513V35.9412H156.665V31.8326L153.828 35.9412H153.003Z" fill="white"/>
</g>
<defs>
<clipPath id="clip0_1241_44650">
<rect width="159.824" height="38" fill="white"/>
</clipPath>
</defs>
</svg>
