<svg width="167" height="80" viewBox="0 0 167 80" fill="none" xmlns="http://www.w3.org/2000/svg">
<g clip-path="url(#clip0_1070_29432)">
<path d="M128.879 7.87161C137.237 11.5184 146.697 17.9306 145.71 26.4789C144.563 34.4017 135.301 39.9323 127.026 43.2646C102.86 52.475 68.9222 52.7566 43.9715 44.7094C35.5399 41.9112 26.0762 37.1012 22.5301 29.8733C19.8144 23.9331 23.1219 17.744 28.6818 13.6253C40.3108 5.2014 55.1326 2.31173 70.3856 0.643771C86.9414 -0.95835 104.364 0.457223 119.186 4.51008C122.498 5.48671 125.764 6.55479 128.879 7.87161ZM156.28 60.8696V80H151.064V74.4986H139.164V80H133.948V64.9993C133.948 62.3474 135.292 60.866 139.164 60.866H156.28V60.8696Z" fill="#397DB7"/>
<path d="M151.064 64.3811H141.27C139.623 64.4579 139.169 64.7835 139.169 66.3783V70.764H151.068L151.064 64.3811Z" fill="white"/>
<path d="M128.733 64.9993V75.3509C128.733 78.6466 126.412 80 123.517 80H107.067V60.8696H123.517C127.963 60.866 128.733 63.1155 128.733 64.9993Z" fill="#397DB7"/>
<path d="M123.456 66.1478C123.456 65.1017 122.658 64.3774 121.254 64.3774H112.286V76.3348H121.254C123.3 76.2507 123.456 75.2741 123.456 74.4986V66.1478Z" fill="white"/>
<path d="M0.74292 60.866H5.95876V68.4047H17.629V60.866H22.8449V79.9963H17.629V72.1869H5.95876V79.9963H0.74292V60.866ZM31.7857 60.866L38.3227 68.6827L44.7817 60.866H51.1168L40.9283 73.094V79.9963H35.7125V73.094L25.4505 60.866H31.7857ZM80.3935 60.866H97.2016C99.5962 60.866 101.917 61.133 101.849 64.9993V80H96.6328V66.3746C96.6328 64.725 96.385 64.3775 94.7657 64.3775H85.6093V80H80.3935V60.866ZM161.494 60.8696H166.709V80H161.494V60.8696ZM53.7225 79.9963H70.5306C73.8748 79.9963 75.2464 79.2245 75.1776 75.3802V60.866H69.9618V74.5206C69.9618 76.1593 69.7141 76.3568 68.0901 76.3568H58.9337V60.866H53.7179L53.7225 79.9963Z" fill="#397DB7"/>
<path d="M96.6752 31.0694C97.6247 34.965 95.0604 38.2021 92.9319 41.3478C90.5648 44.2704 86.6655 46.7833 81.9726 46.4102C71.6897 46.2968 61.4761 45.0486 51.6226 42.7012C51.1692 42.6077 50.7754 42.3835 50.517 42.0721C50.3198 41.6331 50.5996 41.2235 50.9941 40.9418C59.7055 35.3161 70.073 32.7081 80.3212 29.972C84.1425 29.0905 88.2069 28.1468 92.5006 28.5894C94.2714 28.7759 96.0467 29.7489 96.6752 31.0694ZM132.585 14.4117C137.471 17.6159 141.888 21.987 140.388 27.2653C137.943 35.0601 127.3 39.2117 118.828 41.849C114.217 43.0743 109.566 44.3326 104.52 44.7094C104.203 44.6801 103.689 44.7423 103.611 44.3655L103.731 43.9266C110.901 37.4815 116.341 30.2537 121.112 22.9307C123.319 19.6314 125.369 16.237 127.259 12.9047C127.493 12.6913 127.792 12.5289 128.126 12.4328C129.906 12.5572 131.168 13.6545 132.585 14.4117ZM63.802 6.11213L63.6415 6.58399C53.274 15.9809 46.4572 26.8885 39.9936 37.7303C38.7321 38.674 37.5072 37.4157 36.365 37.0097C30.6124 33.992 25.4103 29.1198 26.9104 23.3368C29.3142 15.7944 39.0486 11.7671 47.1728 9.03472C52.0506 7.53326 57.1098 6.43742 62.2699 5.76464C62.8158 5.7683 63.5268 5.70611 63.802 6.11213ZM115.24 7.62281C115.832 7.87154 116.543 7.96664 116.896 8.4385C117.213 8.97254 116.58 9.32003 116.227 9.66387C108.066 14.7555 98.7257 17.583 89.184 20.0667C84.3351 21.0067 79.445 22.7076 74.0457 21.7639C73.3946 21.6312 72.7836 21.3959 72.2486 21.0717C71.7136 20.7475 71.2655 20.3411 70.9308 19.8765C69.5913 16.921 71.4033 13.8411 72.9814 11.266C75.0732 8.02882 78.7752 4.2247 83.8993 4.16252C94.9411 4.10399 105.35 5.4208 115.24 7.62281Z" fill="white"/>
</g>
<defs>
<clipPath id="clip0_1070_29432">
<rect width="166" height="80" fill="white" transform="translate(0.727295)"/>
</clipPath>
</defs>
</svg>
