<svg width="160" height="38" viewBox="0 0 160 38" fill="none" xmlns="http://www.w3.org/2000/svg">
<g clip-path="url(#clip0_1241_44822)">
<path d="M38 16.6617L23.5235 24.7812L27.8822 27.4721L37.7545 22.1248C36.9102 26.3197 34.6302 30.0943 31.3024 32.8063C27.9746 35.5184 23.8045 37.0005 19.5016 37.0005C15.1986 37.0005 11.0286 35.5184 7.70079 32.8063C4.37299 30.0943 2.09298 26.3197 1.24862 22.1248L11.1996 27.4064L15.4765 24.7812L1 16.6617C1.13828 15.244 1.44354 13.8473 1.9095 12.5003L19.4858 22.4752L37.0905 12.4972C37.5565 13.8441 37.8617 15.2408 38 16.6586V16.6617Z" fill="#222222"/>
<path d="M19.5087 0.000457764L3.5625 8.96475H13.8817V14.8158L19.4143 17.951L25.0884 14.7344V8.96475H35.2723L35.4108 8.88653L19.5087 0.000457764Z" fill="#222222"/>
<path d="M61.5351 10.7353C62.5453 10.9619 63.4402 11.5476 64.0549 12.3846C64.6598 13.2467 64.9719 14.2819 64.9449 15.3365C64.9622 16.0512 64.8278 16.7615 64.5506 17.4199C64.2734 18.0783 63.8598 18.6698 63.3373 19.155C62.1903 20.1925 60.6851 20.7382 59.1432 20.6756H50.2988V2.60638H58.7316C60.404 2.60638 61.7019 3.05551 62.6253 3.95375C63.065 4.34761 63.4164 4.83094 63.6562 5.37166C63.8959 5.91239 64.0185 6.49817 64.0159 7.09015C64.0162 7.88769 63.7779 8.66688 63.3317 9.32645C62.9077 9.98591 62.2746 10.4823 61.5351 10.7353ZM57.8805 6.44722H54.7599V9.51094H57.6858C58.1812 9.54461 58.6712 9.39108 59.0597 9.08046C59.2163 8.94087 59.3404 8.7683 59.4231 8.57504C59.5058 8.38177 59.545 8.17257 59.5381 7.96231C59.5405 7.76053 59.5011 7.56046 59.4226 7.37474C59.3441 7.18902 59.2281 7.02168 59.082 6.8833C58.92 6.73486 58.7306 6.61996 58.5244 6.54513C58.3183 6.47031 58.0995 6.43704 57.8805 6.44722ZM54.7599 16.7565H58.1698C58.7377 16.7979 59.2992 16.6132 59.7328 16.2422C59.9109 16.0821 60.0527 15.8855 60.1487 15.6656C60.2447 15.4457 60.2925 15.2076 60.2891 14.9675C60.2925 14.7241 60.2447 14.4828 60.1488 14.2592C60.053 14.0357 59.9112 13.8351 59.7328 13.6704C59.3311 13.3129 58.8057 13.1282 58.2699 13.1561H54.7599V16.7565Z" fill="#222222"/>
<path d="M76.0278 20.9726C74.7793 21.0015 73.5379 20.7762 72.3783 20.3102C71.2188 19.8442 70.165 19.1472 69.2805 18.2611C67.5495 16.4847 66.5801 14.0973 66.5801 11.6109C66.5801 9.12452 67.5495 6.73711 69.2805 4.96074C71.0844 3.21796 73.4895 2.24457 75.9916 2.24457C78.4938 2.24457 80.8989 3.21796 82.7028 4.96074C84.0227 6.2719 84.9221 7.94994 85.2854 9.77905C85.6488 11.6082 85.4594 13.5047 84.7416 15.2247C84.0238 16.9448 82.8104 18.4096 81.2576 19.431C79.7047 20.4523 77.8834 20.9833 76.0278 20.9558V20.9726ZM76.0278 16.4385C76.6475 16.4501 77.2631 16.3346 77.8369 16.0991C78.4107 15.8636 78.9308 15.513 79.3653 15.0688C79.8155 14.6172 80.1687 14.0775 80.4031 13.4833C80.6375 12.889 80.7481 12.2527 80.7281 11.6137C80.735 10.9729 80.6134 10.3372 80.3707 9.74455C80.128 9.15192 79.769 8.61447 79.3152 8.16424C78.8783 7.72136 78.3584 7.36984 77.7855 7.12995C77.2127 6.89006 76.5983 6.76655 75.9777 6.76655C75.3572 6.76655 74.7427 6.89006 74.1699 7.12995C73.5971 7.36984 73.0772 7.72136 72.6402 8.16424C71.7705 9.09681 71.2865 10.3271 71.2865 11.6053C71.2865 12.8836 71.7705 14.1139 72.6402 15.0464C73.0746 15.4986 73.5973 15.8556 74.1754 16.0952C74.7536 16.3347 75.3748 16.4516 76 16.4385H76.0278Z" fill="#222222"/>
<path d="M96.4222 20.9445C95.2068 20.9791 93.9967 20.7695 92.8629 20.3279C91.7291 19.8863 90.6944 19.2216 89.8196 18.3727C88.9378 17.5011 88.2464 16.4544 87.7896 15.2993C87.3328 14.1442 87.1205 12.906 87.1663 11.6639C87.1307 10.4248 87.3456 9.19143 87.798 8.0383C88.2504 6.88517 88.9309 5.83627 89.7982 4.95509C90.6656 4.07391 91.7019 3.37876 92.8442 2.91172C93.9866 2.44467 95.2114 2.21544 96.4445 2.23788C97.9801 2.21994 99.5004 2.54654 100.894 3.1939C102.184 3.79423 103.309 4.70198 104.171 5.83832L101.273 8.89645C99.8784 7.40559 98.3673 6.66016 96.7393 6.66016C96.0932 6.64541 95.4509 6.76379 94.852 7.00801C94.2532 7.25224 93.7104 7.61713 93.2572 8.0802C92.7981 8.55671 92.4385 9.12075 92.1997 9.7391C91.9609 10.3575 91.8476 11.0176 91.8666 11.6806C91.8491 12.3326 91.9633 12.9813 92.2023 13.5877C92.4414 14.194 92.8002 14.7454 93.2572 15.2084C93.7103 15.6639 94.2504 16.0225 94.845 16.2627C95.4396 16.5029 96.0764 16.6197 96.7171 16.6061C97.6143 16.5982 98.4979 16.384 99.3001 15.9799C100.102 15.5758 100.802 14.9925 101.345 14.2747L104.365 17.1931C103.469 18.3386 102.329 19.2671 101.028 19.9102C99.5957 20.616 98.0173 20.9705 96.4222 20.9445Z" fill="#222222"/>
<path d="M109.796 20.6756H104.506L110.113 11.5516L104.973 2.60638H110.207L113.061 8.14121L116.182 2.60638H121.466L115.959 11.5516L121.344 20.6868H116.131L113.011 14.9787L109.796 20.6756Z" fill="#222222"/>
<path d="M130.774 20.9731C129.525 21.0017 128.284 20.7762 127.125 20.3102C125.965 19.8443 124.911 19.1474 124.027 18.2616C122.296 16.4853 121.326 14.0979 121.326 11.6114C121.326 9.12504 122.296 6.73763 124.027 4.96126C125.831 3.21811 128.237 2.24457 130.74 2.24457C133.244 2.24457 135.65 3.21811 137.454 4.96126C138.776 6.27407 139.676 7.95472 140.039 9.78652C140.401 11.6183 140.21 13.5173 139.488 15.2385C138.767 16.9598 137.549 18.4244 135.992 19.4435C134.435 20.4626 132.61 20.9896 130.752 20.9564L130.774 20.9731ZM130.774 16.439C131.394 16.4513 132.009 16.3361 132.583 16.1006C133.157 15.865 133.677 15.5141 134.111 15.0693C134.562 14.618 134.916 14.0785 135.152 13.4843C135.387 12.89 135.499 12.2536 135.48 11.6142C135.485 10.9736 135.363 10.3383 135.121 9.7458C134.878 9.15334 134.52 8.61576 134.067 8.16476C133.63 7.72188 133.11 7.37036 132.537 7.13047C131.964 6.89058 131.35 6.76707 130.729 6.76707C130.109 6.76707 129.494 6.89058 128.922 7.13047C128.349 7.37036 127.829 7.72188 127.392 8.16476C126.522 9.09733 126.038 10.3276 126.038 11.6059C126.038 12.8841 126.522 14.1144 127.392 15.0469C127.825 15.5002 128.348 15.8579 128.926 16.0976C129.505 16.3372 130.126 16.4535 130.752 16.439H130.774Z" fill="#222222"/>
<path d="M157.09 2.60651V16.4659H159.065V24.3768H154.531V20.7037H145.515V24.3768H140.959V16.438H142.628C143.881 14.0414 144.782 10.2714 145.331 5.12793L145.626 2.57855L157.09 2.60651ZM147.322 16.4659H152.562V6.86665H149.564L149.392 8.0407C149.008 10.907 148.314 13.7228 147.322 16.438V16.4659Z" fill="#222222"/>
<path d="M50.5446 36.9702V35.1921H50.8019C50.9431 35.1921 51.0642 35.1366 51.1651 35.0256C51.271 34.9147 51.3593 34.7381 51.4299 34.496C51.5055 34.2539 51.5636 33.9361 51.6039 33.5426C51.6493 33.1441 51.6821 32.6574 51.7023 32.0823L51.7401 30.569H55.1979V35.1921H55.8789V36.9702H55.1299V35.9412H51.2937V36.9702H50.5446ZM51.8763 35.1921H54.3429V31.3181H52.527L52.5043 32.1958C52.4892 32.7759 52.4589 33.2677 52.4135 33.6713C52.3681 34.0698 52.3025 34.3926 52.2168 34.6398C52.131 34.8869 52.0175 35.071 51.8763 35.1921ZM59.1284 35.979C58.74 35.979 58.3894 35.9033 58.0767 35.752C57.7639 35.6007 57.4941 35.3964 57.2671 35.1391C57.0401 34.8768 56.8635 34.5843 56.7374 34.2614C56.6164 33.9336 56.5558 33.5981 56.5558 33.2551C56.5558 32.897 56.6214 32.5565 56.7525 32.2336C56.8837 31.9058 57.0653 31.6157 57.2973 31.3635C57.5294 31.1062 57.8018 30.9045 58.1145 30.7582C58.4323 30.6069 58.7753 30.5312 59.1435 30.5312C59.5269 30.5312 59.875 30.6094 60.1877 30.7658C60.5055 30.9221 60.7754 31.1315 60.9973 31.3938C61.2243 31.6561 61.3983 31.9486 61.5194 32.2715C61.6455 32.5943 61.7085 32.9247 61.7085 33.2627C61.7085 33.6208 61.643 33.9638 61.5118 34.2917C61.3857 34.6145 61.2066 34.9046 60.9746 35.1618C60.7426 35.4141 60.4677 35.6133 60.1499 35.7596C59.8371 35.9059 59.4966 35.979 59.1284 35.979ZM57.4184 33.2551C57.4184 33.5073 57.4587 33.752 57.5395 33.989C57.6202 34.2261 57.7337 34.438 57.8799 34.6246C58.0313 34.8062 58.2129 34.95 58.4247 35.0559C58.6366 35.1618 58.8737 35.2148 59.136 35.2148C59.4084 35.2148 59.6505 35.1593 59.8623 35.0483C60.0742 34.9374 60.2507 34.7886 60.392 34.6019C60.5383 34.4102 60.6492 34.1984 60.7249 33.9663C60.8006 33.7293 60.8384 33.4922 60.8384 33.2551C60.8384 33.0029 60.7981 32.7608 60.7173 32.5287C60.6417 32.2916 60.5282 32.0823 60.3769 31.9007C60.2255 31.7141 60.0439 31.5678 59.8321 31.4619C59.6253 31.3559 59.3932 31.303 59.136 31.303C58.8636 31.303 58.6215 31.3585 58.4096 31.4694C58.1977 31.5804 58.0187 31.7292 57.8724 31.9159C57.7261 32.1025 57.6126 32.3118 57.5319 32.5439C57.4562 32.7759 57.4184 33.013 57.4184 33.2551ZM62.3967 33.2173C62.3967 32.8894 62.4547 32.5691 62.5708 32.2563C62.6868 31.9386 62.8558 31.651 63.0777 31.3938C63.3047 31.1315 63.5796 30.9247 63.9024 30.7733C64.2253 30.617 64.591 30.5388 64.9996 30.5388C65.4838 30.5388 65.9025 30.6497 66.2556 30.8717C66.6087 31.0886 66.871 31.3685 67.0425 31.7116L66.3767 32.158C66.2758 31.9411 66.1471 31.7696 65.9908 31.6435C65.8394 31.5174 65.673 31.4291 65.4914 31.3786C65.3148 31.3282 65.1408 31.303 64.9693 31.303C64.6868 31.303 64.4397 31.361 64.2278 31.477C64.0159 31.588 63.8369 31.7368 63.6906 31.9234C63.5493 32.1101 63.4409 32.3194 63.3652 32.5514C63.2946 32.7835 63.2593 33.0155 63.2593 33.2475C63.2593 33.5048 63.3022 33.7545 63.3879 33.9966C63.4737 34.2337 63.5922 34.4456 63.7436 34.6322C63.8999 34.8138 64.084 34.9575 64.2959 35.0635C64.5078 35.1694 64.7398 35.2224 64.992 35.2224C65.1635 35.2224 65.3426 35.1921 65.5292 35.1316C65.7159 35.071 65.8874 34.9777 66.0437 34.8516C66.2052 34.7205 66.3313 34.549 66.4221 34.3371L67.1257 34.7381C67.0148 35.0055 66.8407 35.2325 66.6036 35.4191C66.3716 35.6057 66.1093 35.747 65.8167 35.8428C65.5292 35.9387 65.2442 35.9866 64.9617 35.9866C64.5834 35.9866 64.2379 35.9084 63.9251 35.752C63.6124 35.5906 63.3425 35.3787 63.1155 35.1164C62.8885 34.8491 62.712 34.5515 62.5859 34.2236C62.4598 33.8907 62.3967 33.5552 62.3967 33.2173ZM72.003 31.3181H70.2173V35.9412H69.3623V31.3181H67.5691V30.569H72.003V31.3181ZM73.4195 35.9714V35.2602H73.8054C73.9315 35.2602 74.0273 35.2299 74.0929 35.1694C74.1585 35.1089 74.2215 35.0181 74.2821 34.897L74.441 34.549L72.2543 30.569H73.1925L74.8268 33.6788L76.2115 30.569H77.1119L74.9328 35.298C74.8117 35.5452 74.678 35.7192 74.5318 35.8201C74.3905 35.921 74.1963 35.9714 73.9491 35.9714H73.4195ZM77.7996 35.9412V30.569H82.0443V35.9412H81.1893V31.3181H78.647V35.9412H77.7996ZM87.8224 30.569V35.9412H86.9674V33.5729H84.2587V35.9412H83.4112V30.569H84.2587V32.8163H86.9674V30.569H87.8224ZM89.1856 35.9412V30.569H90.0331V32.5514H91.2361C91.6296 32.5514 91.96 32.622 92.2273 32.7633C92.4997 32.8995 92.704 33.0937 92.8402 33.3459C92.9814 33.5981 93.0521 33.8957 93.0521 34.2387C93.0521 34.5616 92.984 34.8541 92.8478 35.1164C92.7116 35.3737 92.5123 35.5755 92.25 35.7218C91.9877 35.868 91.6674 35.9412 91.2891 35.9412H89.1856ZM90.0331 35.2375H91.168C91.4051 35.2375 91.5993 35.1921 91.7506 35.1013C91.902 35.0105 92.0104 34.8894 92.076 34.7381C92.1466 34.5817 92.1819 34.4153 92.1819 34.2387C92.1819 34.0672 92.1491 33.9058 92.0836 33.7545C92.023 33.6032 91.9171 33.4821 91.7658 33.3913C91.6195 33.3005 91.4177 33.2551 91.1605 33.2551H90.0331V35.2375ZM93.8995 35.9412V30.5766H94.7545V35.9412H93.8995ZM99.7902 35.1921V35.9412H96.1053V30.569H99.7221V31.3181H96.9528V32.8465H99.3513V33.5502H96.9528V35.1921H99.7902ZM104.151 30.569H104.953L107.042 35.9412H106.149L105.581 34.4809H103.508L102.948 35.9412H102.048L104.151 30.569ZM105.415 33.8529L104.552 31.4997L103.659 33.8529H105.415ZM112.079 34.5565C112.079 34.844 112.004 35.0912 111.852 35.298C111.706 35.5048 111.507 35.6637 111.255 35.7747C111.002 35.8857 110.725 35.9412 110.422 35.9412H107.857V30.569H110.627C110.879 30.569 111.096 30.6371 111.277 30.7733C111.464 30.9045 111.605 31.076 111.701 31.2878C111.802 31.4947 111.852 31.7116 111.852 31.9386C111.852 32.2009 111.784 32.448 111.648 32.6801C111.517 32.9071 111.328 33.076 111.08 33.187C111.388 33.2778 111.63 33.4443 111.807 33.6864C111.988 33.9235 112.079 34.2135 112.079 34.5565ZM111.209 34.3976C111.209 34.2463 111.176 34.1101 111.111 33.989C111.05 33.8629 110.964 33.7621 110.853 33.6864C110.748 33.6057 110.621 33.5653 110.475 33.5653H108.705V35.2072H110.422C110.574 35.2072 110.707 35.1719 110.823 35.1013C110.944 35.0256 111.038 34.9273 111.103 34.8062C111.174 34.6801 111.209 34.5439 111.209 34.3976ZM108.705 31.303V32.8844H110.263C110.405 32.8844 110.531 32.8516 110.642 32.786C110.753 32.7154 110.841 32.622 110.906 32.506C110.972 32.385 111.005 32.2488 111.005 32.0974C111.005 31.9411 110.975 31.8049 110.914 31.6889C110.853 31.5678 110.77 31.4745 110.664 31.4089C110.563 31.3383 110.445 31.303 110.309 31.303H108.705ZM117.012 31.3181H115.226V35.9412H114.371V31.3181H112.578V30.569H117.012V31.3181ZM119.968 35.979C119.58 35.979 119.229 35.9033 118.916 35.752C118.604 35.6007 118.334 35.3964 118.107 35.1391C117.88 34.8768 117.703 34.5843 117.577 34.2614C117.456 33.9336 117.396 33.5981 117.396 33.2551C117.396 32.897 117.461 32.5565 117.592 32.2336C117.723 31.9058 117.905 31.6157 118.137 31.3635C118.369 31.1062 118.642 30.9045 118.954 30.7582C119.272 30.6069 119.615 30.5312 119.983 30.5312C120.367 30.5312 120.715 30.6094 121.027 30.7658C121.345 30.9221 121.615 31.1315 121.837 31.3938C122.064 31.6561 122.238 31.9486 122.359 32.2715C122.485 32.5943 122.548 32.9247 122.548 33.2627C122.548 33.6208 122.483 33.9638 122.352 34.2917C122.225 34.6145 122.046 34.9046 121.814 35.1618C121.582 35.4141 121.307 35.6133 120.99 35.7596C120.677 35.9059 120.336 35.979 119.968 35.979ZM118.258 33.2551C118.258 33.5073 118.299 33.752 118.379 33.989C118.46 34.2261 118.573 34.438 118.72 34.6246C118.871 34.8062 119.053 34.95 119.265 35.0559C119.476 35.1618 119.713 35.2148 119.976 35.2148C120.248 35.2148 120.49 35.1593 120.702 35.0483C120.914 34.9374 121.091 34.7886 121.232 34.6019C121.378 34.4102 121.489 34.1984 121.565 33.9663C121.64 33.7293 121.678 33.4922 121.678 33.2551C121.678 33.0029 121.638 32.7608 121.557 32.5287C121.481 32.2916 121.368 32.0823 121.217 31.9007C121.065 31.7141 120.884 31.5678 120.672 31.4619C120.465 31.3559 120.233 31.303 119.976 31.303C119.703 31.303 119.461 31.3585 119.249 31.4694C119.038 31.5804 118.858 31.7292 118.712 31.9159C118.566 32.1025 118.452 32.3118 118.372 32.5439C118.296 32.7759 118.258 33.013 118.258 33.2551ZM128.094 35.9412V32.1126L126.513 35.0181H126.013L124.424 32.1126V35.9412H123.577V30.569H124.485L126.263 33.8529L128.041 30.569H128.949V35.9412H128.094ZM132.544 35.979C132.156 35.979 131.805 35.9033 131.492 35.752C131.18 35.6007 130.91 35.3964 130.683 35.1391C130.456 34.8768 130.279 34.5843 130.153 34.2614C130.032 33.9336 129.971 33.5981 129.971 33.2551C129.971 32.897 130.037 32.5565 130.168 32.2336C130.299 31.9058 130.481 31.6157 130.713 31.3635C130.945 31.1062 131.217 30.9045 131.53 30.7582C131.848 30.6069 132.191 30.5312 132.559 30.5312C132.943 30.5312 133.291 30.6094 133.603 30.7658C133.921 30.9221 134.191 31.1315 134.413 31.3938C134.64 31.6561 134.814 31.9486 134.935 32.2715C135.061 32.5943 135.124 32.9247 135.124 33.2627C135.124 33.6208 135.059 33.9638 134.927 34.2917C134.801 34.6145 134.622 34.9046 134.39 35.1618C134.158 35.4141 133.883 35.6133 133.566 35.7596C133.253 35.9059 132.912 35.979 132.544 35.979ZM130.834 33.2551C130.834 33.5073 130.874 33.752 130.955 33.989C131.036 34.2261 131.149 34.438 131.296 34.6246C131.447 34.8062 131.629 34.95 131.84 35.0559C132.052 35.1618 132.289 35.2148 132.552 35.2148C132.824 35.2148 133.066 35.1593 133.278 35.0483C133.49 34.9374 133.666 34.7886 133.808 34.6019C133.954 34.4102 134.065 34.1984 134.141 33.9663C134.216 33.7293 134.254 33.4922 134.254 33.2551C134.254 33.0029 134.214 32.7608 134.133 32.5287C134.057 32.2916 133.944 32.0823 133.793 31.9007C133.641 31.7141 133.46 31.5678 133.248 31.4619C133.041 31.3559 132.809 31.303 132.552 31.303C132.279 31.303 132.037 31.3585 131.825 31.4694C131.613 31.5804 131.434 31.7292 131.288 31.9159C131.142 32.1025 131.028 32.3118 130.948 32.5439C130.872 32.7759 130.834 33.013 130.834 33.2551ZM136.16 35.9412V30.569H139.936V31.3105H137.008V32.8163H138.582C139.177 32.8163 139.623 32.9575 139.921 33.24C140.219 33.5174 140.367 33.8856 140.367 34.3447C140.367 34.6524 140.302 34.9273 140.171 35.1694C140.045 35.4065 139.853 35.5956 139.596 35.7369C139.343 35.8731 139.023 35.9412 138.635 35.9412H136.16ZM137.008 35.1997H138.521C138.753 35.1997 138.94 35.1568 139.081 35.071C139.227 34.9853 139.331 34.8768 139.391 34.7457C139.457 34.6095 139.49 34.4683 139.49 34.322C139.49 34.1757 139.462 34.0395 139.406 33.9134C139.351 33.7873 139.25 33.6864 139.104 33.6107C138.963 33.53 138.763 33.4897 138.506 33.4897H137.008V35.1997ZM141.352 35.9412V30.569H142.199V34.7457L145.067 30.569H145.861V35.9412H145.014V31.8326L142.177 35.9412H141.352ZM150.746 35.9412V31.3181H148.953L148.923 32.3169C148.893 33.0382 148.835 33.6359 148.749 34.1101C148.663 34.5792 148.54 34.95 148.378 35.2224C148.217 35.4897 148.015 35.6814 147.773 35.7974C147.531 35.9084 147.241 35.9639 146.903 35.9639V35.2224C147.089 35.2224 147.253 35.1795 147.395 35.0937C147.536 35.0029 147.654 34.844 147.75 34.6171C147.851 34.3901 147.929 34.0723 147.985 33.6637C148.045 33.2501 148.086 32.7229 148.106 32.0823L148.159 30.569H151.601V35.9412H150.746ZM153.004 35.9412V30.569H153.852V34.7457L156.719 30.569H157.514V35.9412H156.666V31.8326L153.829 35.9412H153.004Z" fill="#222222"/>
</g>
<defs>
<clipPath id="clip0_1241_44822">
<rect width="159.824" height="38" fill="white"/>
</clipPath>
</defs>
</svg>
