<svg width="173" height="40" viewBox="0 0 173 40" fill="none" xmlns="http://www.w3.org/2000/svg">
<g clip-path="url(#clip0_1070_29427)">
<path d="M100.207 35.3889C100.207 35.7116 100.31 35.8982 100.5 35.8982C100.656 35.8813 100.794 35.8134 100.915 35.7285L154.748 1.38557C155.658 0.760585 156.748 0.43919 157.857 0.468701H169.688C171.501 0.468701 172.727 1.65714 172.727 3.43948V25.6446C172.727 28.3269 172.123 29.8887 169.705 31.3146L155.352 39.8028C155.209 39.9004 155.043 39.959 154.869 39.9726C154.696 39.9726 154.524 39.8366 154.524 39.3442V13.4385C154.524 13.1327 154.437 12.9291 154.23 12.9291C154.078 12.9463 153.935 13.0051 153.815 13.0989L114.472 38.2241C113.574 38.818 112.52 39.1406 111.45 39.1237H85.3705C83.5396 39.1237 82.3306 37.9352 82.3306 36.136V4.13518C82.3306 3.89775 82.227 3.67691 82.0195 3.67691C81.8684 3.69583 81.7253 3.75448 81.6052 3.84669L55.6468 19.1592C55.388 19.329 55.3189 19.448 55.3189 19.5667C55.3189 19.6685 55.3705 19.7703 55.5432 19.957L74.0923 38.1727C74.3339 38.4101 74.507 38.5971 74.507 38.8007C74.507 38.9705 74.2307 39.1065 73.9024 39.1065H57.1493C55.837 39.1065 54.8179 38.9198 54.1098 38.2237L42.8661 27.1892C42.8235 27.1391 42.7709 27.0982 42.7115 27.069C42.6521 27.0398 42.5872 27.0229 42.5209 27.0194C42.399 27.0249 42.2804 27.0599 42.1755 27.1212L23.3851 38.2241C22.2452 38.9029 21.4679 39.0899 20.3452 39.0899H3.05744C1.20908 39.1068 0 37.9014 0 36.1188V14.3384C0 11.6389 0.60454 10.094 3.03957 8.66812L17.4784 0.146058C17.5916 0.0731953 17.723 0.0321447 17.8582 0.0273438C18.0829 0.0273438 18.2037 0.248185 18.2037 0.74028V29.9056C18.2037 30.2113 18.2728 30.347 18.4972 30.347C18.6527 30.3301 18.791 30.2621 18.929 30.1772L67.7025 1.3345C68.6349 0.706454 69.7749 0.40105 70.9148 0.451788H97.1668C98.9801 0.451788 100.207 1.64023 100.207 3.42257L100.189 35.3889H100.207Z" fill="#131E29"/>
</g>
<defs>
<clipPath id="clip0_1070_29427">
<rect width="172.727" height="40" fill="white"/>
</clipPath>
</defs>
</svg>
