<svg width="21" height="18" viewBox="0 0 21 18" fill="none" xmlns="http://www.w3.org/2000/svg">
<path d="M1.28747 7.83904C1.28747 7.83904 10.5753 3.88771 13.7964 2.49634C15.0313 1.93984 19.2188 0.158893 19.2188 0.158893C19.2188 0.158893 21.1516 -0.620205 20.9905 1.27197C20.9367 2.05114 20.5073 4.7781 20.0778 7.72774C19.4335 11.9018 18.7356 16.4653 18.7356 16.4653C18.7356 16.4653 18.6282 17.7453 17.7156 17.9679C16.8029 18.1905 15.2996 17.1888 15.0313 16.9662C14.8165 16.7993 11.0047 14.2948 9.6089 13.0704C9.23308 12.7365 8.80361 12.0687 9.66254 11.2896C11.5953 9.45301 13.9038 7.17124 15.2996 5.72427C15.9439 5.05639 16.5881 3.49812 13.9038 5.39029C10.0921 8.11733 6.33402 10.6774 6.33402 10.6774C6.33402 10.6774 5.47501 11.2339 3.86443 10.733C2.25378 10.2322 0.374744 9.5643 0.374744 9.5643C0.374744 9.5643 -0.91366 8.72952 1.28747 7.83904Z" fill="white"/>
</svg>
