<svg width="26" height="16" viewBox="0 0 26 16" fill="none" xmlns="http://www.w3.org/2000/svg">
<path fill-rule="evenodd" clip-rule="evenodd" d="M25.1197 1.07924C25.2979 0.485177 25.1197 0.0693359 24.288 0.0693359H21.5157C20.8028 0.0693359 20.486 0.445574 20.3078 0.861415C20.3078 0.861415 18.9018 4.30696 16.9018 6.52478C16.2484 7.17825 15.9711 7.37627 15.6147 7.37627C15.4365 7.37627 15.1791 7.17825 15.1791 6.58419V1.07924C15.1791 0.366365 14.981 0.0693359 14.387 0.0693359H10.0306C9.59491 0.0693359 9.31768 0.405969 9.31768 0.702999C9.31768 1.37627 10.3078 1.53468 10.4266 3.39607V7.47528C10.4266 8.36637 10.2682 8.52478 9.91174 8.52478C8.98105 8.52478 6.68402 5.07924 5.33748 1.11884C5.06026 0.386168 4.80283 0.0693359 4.08996 0.0693359H1.31768C0.525603 0.0693359 0.367188 0.445574 0.367188 0.861415C0.367188 1.59409 1.29788 5.23765 4.74342 10.0495C7.04045 13.3367 10.2682 15.1188 13.1989 15.1188C14.9612 15.1188 15.1791 14.7228 15.1791 14.0495V11.5545C15.1791 10.7624 15.3375 10.604 15.9117 10.604C16.3276 10.604 17.0207 10.802 18.6642 12.3862C20.5454 14.2674 20.8622 15.1188 21.9117 15.1188H24.684C25.4761 15.1188 25.8721 14.7228 25.6345 13.9505C25.3771 13.1782 24.486 12.0495 23.2979 10.703C22.6444 9.93072 21.6741 9.11884 21.3969 8.703C20.981 8.16834 21.0999 7.93072 21.3969 7.47528C21.3969 7.45547 24.783 2.703 25.1197 1.07924Z" fill="#222222"/>
</svg>
