<svg width="32" height="68" viewBox="0 0 32 68" fill="none" xmlns="http://www.w3.org/2000/svg">
<path id="Vector 32" d="M4.50139 6C4.50139 8.94552 6.8892 11.3333 9.83472 11.3333C12.7802 11.3333 15.1681 8.94552 15.1681 6C15.1681 3.05448 12.7802 0.666667 9.83472 0.666667C6.8892 0.666667 4.50139 3.05448 4.50139 6ZM15.4913 68L10.8831 57.4123L4.01803 66.6969L15.4913 68ZM9.00695 5.43893C-2.91156 23.023 4.83677 40.7741 14.9901 46.654L15.9924 44.9233C6.83072 39.6177 -0.597057 23.1729 10.6625 6.56107L9.00695 5.43893ZM14.9901 46.654C18.8552 48.8923 22.4858 49.191 25.4321 48.1664C28.3625 47.1474 30.5078 44.8537 31.4569 42.1221C32.4085 39.383 32.1591 36.1991 30.3128 33.4161C28.4678 30.6352 25.0984 28.3534 19.9816 27.2344L19.5544 29.1883C24.3021 30.2265 27.1584 32.2792 28.6462 34.5218C30.1327 36.7624 30.3232 39.2911 29.5676 41.4657C28.8095 43.6478 27.1004 45.4688 24.7752 46.2774C22.466 47.0804 19.4397 46.9197 15.9924 44.9233L14.9901 46.654ZM19.9816 27.2344C15.3999 26.2325 11.3449 27.0441 8.09981 29.1122C4.86872 31.1714 2.50151 34.4359 1.18939 38.2518C-1.43379 45.8805 0.110415 55.8378 7.54321 63.3521L8.96511 61.9456C2.07318 54.9781 0.701953 45.82 3.0807 38.9022C4.26955 35.4448 6.38264 32.5782 9.1747 30.7988C11.9528 29.0283 15.4638 28.2937 19.5544 29.1883L19.9816 27.2344Z" fill="#BF3535"/>
</svg>
