<svg width="113" height="203" viewBox="0 0 113 203" fill="none" xmlns="http://www.w3.org/2000/svg">
<path id="Vector 32" d="M26.4985 8C26.4985 12.4183 30.0802 16 34.4985 16C38.9168 16 42.4985 12.4183 42.4985 8C42.4985 3.58172 38.9168 0 34.4985 0C30.0802 0 26.4985 3.58172 26.4985 8ZM54.9985 202L45.8232 187.309L37.6884 202.601L54.9985 202ZM33.3187 7.07375C12.0443 34.1732 8.29482 61.4068 14.4253 84.1405C20.5388 106.811 36.4516 124.904 54.3277 133.842L55.6693 131.158C38.5455 122.596 23.2083 105.189 17.3218 83.3595C11.4522 61.5932 14.9527 35.3268 35.6784 8.92625L33.3187 7.07375ZM54.3277 133.842C81.42 147.388 104.238 136.935 110.828 120.56C114.118 112.383 113.247 102.884 106.883 94.6018C100.546 86.3549 88.8749 79.4433 70.7762 76.026L70.2196 78.974C87.8709 82.3067 98.7626 88.9577 104.504 96.4297C110.218 103.866 110.941 112.242 108.045 119.44C102.26 133.816 81.5785 144.113 55.6693 131.158L54.3277 133.842ZM70.7762 76.026C36.0135 69.4625 10.6704 88.7154 3.22914 115.206C-4.20892 141.686 6.28706 175.092 42.3015 196.942L43.8576 194.377C8.86082 173.145 -0.915715 141.056 6.11736 116.018C13.1472 90.9913 37.0189 72.7053 70.2196 78.974L70.7762 76.026Z" fill="#222222"/>
</svg>